<svg width="1686" height="675" viewBox="0 0 1686 675" fill="none" xmlns="http://www.w3.org/2000/svg">
<path d="M1685.5 99C1685.5 44.6 1641.4 0.5 1587 0.5C1532.6 0.5 1488.5 44.6 1488.5 99V559C1488.5 613.4 1532.6 657.5 1587 657.5C1641.4 657.5 1685.5 613.4 1685.5 559V99Z" stroke="#28654E"/>
<path d="M375.366 408.444V418.979C377.14 418.948 378.775 418.82 380.591 418.427L380.953 420.7C378.574 421.21 376.492 421.295 374.007 421.295H372.648V408.444H375.366ZM388.663 406.597V425.925H386.114V406.597H388.663ZM384.521 406.958V425.075H381.951V414.901H378.085V412.714H381.951V406.958H384.521ZM406.342 406.597V425.967H403.603V406.597H406.342ZM395.85 407.956C398.76 407.956 400.926 410.632 400.926 414.838C400.926 419.086 398.76 421.741 395.85 421.741C392.876 421.741 390.71 419.086 390.731 414.838C390.71 410.632 392.876 407.956 395.85 407.956ZM395.85 410.399C394.342 410.399 393.344 411.97 393.344 414.838C393.344 417.726 394.342 419.277 395.85 419.277C397.316 419.277 398.314 417.726 398.314 414.838C398.314 411.97 397.316 410.399 395.85 410.399ZM424.723 406.597V425.967H422.047V415.602H418.458V421.379H409.133V408.083H411.831V412.777H415.803V408.083H418.458V413.415H422.047V406.597H424.723ZM411.831 419.213H415.803V414.901H411.831V419.213ZM441.159 407.722C441.159 412.777 437.973 416.282 432.302 417.854L431.24 415.751C435.403 414.625 437.803 412.501 438.27 409.889H432.28V407.722H441.159ZM447.424 406.618V417.429H444.727V413.415H441.286V411.206H444.727V406.618H447.424ZM447.424 418.194V425.691H434.617V418.194H447.424ZM437.272 420.317V423.567H444.748V420.317H437.272ZM455.568 409.953C455.568 412.098 456.63 414.2 459.2 415.22L457.734 417.301C456.109 416.643 454.973 415.454 454.293 413.988C453.571 415.666 452.36 417.057 450.555 417.811L449.111 415.708C451.829 414.54 452.934 412.14 452.934 409.953V407.722H455.568V409.953ZM465.996 406.618V418.321H463.426V413.521H461.812V418.215H459.285V406.915H461.812V411.312H463.426V406.618H465.996ZM465.996 419.171V425.925H463.299V421.337H452.636V419.171H465.996Z" fill="white"/>
<path d="M1291.14 262.599C1291.12 268.567 1289.67 273.537 1282.45 277.148L1280.96 275.109C1284.19 273.505 1286.11 271.711 1287.21 269.565L1281.49 270.096L1281.15 267.781L1288.04 267.356C1288.23 266.549 1288.37 265.679 1288.44 264.765H1282.17V262.599H1291.14ZM1296.3 260.751V268.164H1299.04V270.394H1296.3V280.037H1293.58V260.751H1296.3ZM1316.21 260.751V280.079H1313.6V260.751H1316.21ZM1312.3 261.133V279.166H1309.73V270.203H1307.86V267.781H1309.73V261.133H1312.3ZM1308.31 262.939V265.126H1307.08V273.155C1307.62 273.112 1308.14 273.059 1308.63 272.985L1308.82 274.939C1305.76 275.597 1301.81 275.661 1299.39 275.661L1299.09 273.431H1300.7V265.126H1299.45V262.939H1308.31ZM1303.1 273.389L1304.61 273.325V265.126H1303.1V273.389Z" fill="white"/>
<path d="M99 0.5C153.4 0.5 197.5 44.6 197.5 99V559C197.5 613.4 153.4 657.5 99 657.5C44.6 657.5 0.5 613.4 0.5 559V99C0.5 44.6 44.6 0.5 99 0.5Z" stroke="#28654E"/>
<path d="M1266.61 547.449V549.637H1262.46V556.03H1259.7V549.637H1255.75V556.03H1252.97V549.637H1248.91V547.449H1266.61ZM1257.71 537.339C1261.85 537.339 1264.76 539.06 1264.76 541.715C1264.76 544.327 1261.85 545.963 1257.71 545.963C1253.56 545.963 1250.68 544.327 1250.7 541.715C1250.68 539.06 1253.56 537.339 1257.71 537.339ZM1257.71 539.506C1255.11 539.506 1253.46 540.292 1253.48 541.715C1253.46 543.074 1255.11 543.839 1257.71 543.839C1260.32 543.839 1261.95 543.074 1261.95 541.715C1261.95 540.292 1260.32 539.506 1257.71 539.506ZM1284.86 548.129V550.338H1280.78V556.03H1278.04V550.338H1274.01V556.03H1271.31V550.338H1267.17V548.129H1284.86ZM1282.97 544.625V546.77H1269.4V537.488H1282.76V539.612H1272.05V541.035H1282.35V543.138H1272.05V544.625H1282.97ZM1303.13 551.485V553.694H1285.44V551.485H1303.13ZM1290.03 537.934V541.141H1298.46V537.934H1301.16V548.256H1287.31V537.934H1290.03ZM1290.03 546.133H1298.46V543.244H1290.03V546.133ZM1307.77 552.504L1305.95 558.558H1303.69L1304.76 552.504H1307.77ZM1329.35 549.191V556.03H1326.63V551.357H1316.05V549.191H1329.35ZM1329.35 536.702V548.426H1326.63V536.702H1329.35ZM1323.59 537.976V540.122H1316.94V541.736H1323.02V543.817H1316.94V545.495C1320.34 545.485 1322.5 545.389 1324.95 545.007L1325.23 547.131C1322.47 547.577 1320.02 547.641 1315.88 547.641H1314.22V537.976H1323.59ZM1349.04 546.961V549.085H1331.37V546.961H1338.85V545.538H1333.58V537.127H1346.98V539.23H1336.3V540.313H1346.54V542.309H1336.3V543.478H1347.15V545.538H1341.57V546.961H1349.04ZM1346.88 550.274V556.03H1344.14V552.398H1333.37V550.274H1346.88Z" fill="white"/>
<path d="M71.1242 179.436C71.1242 182.45 72.6622 185.67 75.8002 186.982L74.3852 189.033C72.1802 188.1 70.6632 186.244 69.8322 183.968C68.9812 186.439 67.4332 188.49 65.2382 189.505L63.7412 187.434C66.8382 186.06 68.4382 182.594 68.4382 179.436V178.287H64.4802V176.154H75.0212V178.287H71.1242V179.436ZM79.5122 174.35V193.012H76.8662V174.35H79.5122ZM97.1362 174.37V187.782H94.5112V174.37H97.1362ZM97.6292 190.592V192.684H84.6272V186.429H87.2722V190.592H97.6292ZM86.9032 175.56C89.7742 175.56 92.0092 177.528 92.0092 180.256C92.0092 183.045 89.7742 184.993 86.9032 184.993C84.0322 184.993 81.7962 183.045 81.7962 180.256C81.7962 177.528 84.0322 175.56 86.9032 175.56ZM86.9032 177.836C85.4472 177.815 84.3392 178.738 84.3602 180.256C84.3392 181.814 85.4472 182.717 86.9032 182.717C88.3182 182.717 89.4252 181.814 89.4252 180.256C89.4252 178.738 88.3182 177.815 86.9032 177.836ZM120.532 188.685V190.776H103.449V188.685H110.585V184.46H113.19V188.685H120.532ZM113.272 176.749C113.272 179.415 115.671 182.225 119.937 182.881L118.829 185.055C115.548 184.46 113.108 182.707 111.877 180.379C110.647 182.696 108.227 184.47 104.966 185.055L103.859 182.881C108.083 182.225 110.462 179.395 110.483 176.749V175.416H113.272V176.749ZM137.172 174.35V193.012H134.649V183.517H132.947V192.191H130.507V174.842H132.947V181.425H134.649V174.35H137.172ZM129.194 176.646C129.174 181.855 127.615 186.121 122.365 189.177L120.847 187.372C124.652 185.137 126.282 182.399 126.651 178.738H121.791V176.646H129.194Z" fill="white"/>
<path d="M40.841 380.457C43.794 380.457 46.009 382.344 46.009 385.03C46.009 387.307 44.419 389.009 42.133 389.48V391.982C43.712 391.9 45.301 391.757 46.808 391.552L47.0141 393.438C42.8711 394.218 38.441 394.259 35.181 394.259L34.873 392.146C36.247 392.146 37.847 392.136 39.528 392.085V389.46C37.252 388.999 35.652 387.296 35.652 385.03C35.652 382.344 37.888 380.457 40.841 380.457ZM40.841 382.692C39.364 382.692 38.236 383.533 38.257 385.03C38.236 386.486 39.364 387.368 40.841 387.368C42.338 387.368 43.445 386.486 43.466 385.03C43.445 383.533 42.317 382.692 40.841 382.692ZM50.479 379.35V398.053H47.875V379.35H50.479ZM69.478 390.116V392.167H62.177V398.012H59.593V392.167H52.3951V390.116H69.478ZM56.989 380.067V382.221H64.823V380.067H67.448V388.312H54.405V380.067H56.989ZM56.989 386.22H64.823V384.271H56.989V386.22ZM84.855 380.375V381.585C84.834 382.795 84.834 384.456 84.403 386.486L81.84 386.302C82.137 384.733 82.209 383.513 82.23 382.467H75.216V380.375H84.855ZM80.179 384.538V387.758C82.045 387.696 83.9421 387.573 85.6951 387.368L85.839 389.193C81.963 389.87 77.697 389.973 74.334 389.973L74.108 387.881C75.175 387.871 76.3441 387.871 77.5741 387.84V384.538H80.179ZM89.387 379.35V383.943H91.663V386.117H89.387V390.731H86.7001V379.35H89.387ZM83.0291 390.957C87.0281 390.957 89.5101 392.29 89.5101 394.423C89.5101 396.679 87.0281 397.971 83.0291 397.971C79.0301 397.971 76.528 396.679 76.528 394.423C76.528 392.29 79.0301 390.957 83.0291 390.957ZM83.0291 392.967C80.5681 392.967 79.194 393.479 79.194 394.423C79.194 395.489 80.5681 395.94 83.0291 395.94C85.4701 395.94 86.823 395.489 86.823 394.423C86.823 393.479 85.4701 392.967 83.0291 392.967ZM107.36 380.97V382.733C107.36 385.071 107.36 387.696 106.601 391.654L103.976 391.388C104.684 387.86 104.714 385.235 104.735 383.041H93.7431V380.97H107.36ZM109 393.603V395.735H91.979V393.603H98.0701V387.184H100.674V393.603H109ZM126.686 393.787V395.94H109.603V393.787H116.802V390.978H111.572V384.702H122.134V382.651H111.552V380.56H124.718V386.753H114.197V388.845H125.148V390.978H119.406V393.787H126.686ZM147.17 379.37V392.782H144.545V379.37H147.17ZM147.662 395.592V397.684H134.66V391.429H137.305V395.592H147.662ZM136.936 380.56C139.807 380.56 142.043 382.528 142.043 385.256C142.043 388.045 139.807 389.993 136.936 389.993C134.065 389.993 131.83 388.045 131.83 385.256C131.83 382.528 134.065 380.56 136.936 380.56ZM136.936 382.836C135.48 382.815 134.373 383.738 134.393 385.256C134.373 386.814 135.48 387.717 136.936 387.717C138.351 387.717 139.459 386.814 139.459 385.256C139.459 383.738 138.351 382.815 136.936 382.836ZM156.406 384.436C156.406 387.45 157.944 390.67 161.082 391.982L159.667 394.033C157.463 393.1 155.945 391.244 155.114 388.968C154.263 391.439 152.715 393.49 150.521 394.505L149.024 392.434C152.12 391.06 153.72 387.594 153.72 384.436V383.287H149.762V381.154H160.303V383.287H156.406V384.436ZM164.794 379.35V398.012H162.149V379.35H164.794Z" fill="white"/>
<path d="M80.0248 586.277V588.39H64.7048V586.277H71.0828V584.329H73.6878V586.277H80.0248ZM80.9678 596.408V598.541H73.6878V603.032H71.0828V598.541H63.8848V596.408H80.9678ZM72.3958 589.107C76.3948 589.107 78.8148 590.235 78.8348 592.307C78.8148 594.378 76.3948 595.506 72.3958 595.506C68.3558 595.506 65.9358 594.378 65.9558 592.307C65.9358 590.235 68.3558 589.107 72.3958 589.107ZM72.3958 591.035C69.8938 591.056 68.6628 591.445 68.6628 592.307C68.6628 593.147 69.8938 593.558 72.3958 593.558C74.8568 593.558 76.1078 593.147 76.1078 592.307C76.1078 591.445 74.8568 591.056 72.3958 591.035ZM97.1978 584.35V603.012H94.5518V584.35H97.1978ZM91.5988 586.298C91.5988 591.958 89.6098 596.654 82.9448 599.812L81.5708 597.721C86.3898 595.444 88.5128 592.491 88.9328 588.349H82.5758V586.298H91.5988ZM113.128 585.437C113.128 590.317 110.052 593.701 104.577 595.219L103.551 593.188C107.571 592.102 109.888 590.051 110.339 587.528H104.556V585.437H113.128ZM119.178 584.37V594.809H116.574V590.933H113.251V588.8H116.574V584.37H119.178ZM119.178 595.547V602.786H106.812V595.547H119.178ZM109.375 597.598V600.735H116.594V597.598H109.375ZM127.041 587.59C127.041 589.661 128.066 591.691 130.548 592.676L129.133 594.686C127.564 594.05 126.467 592.901 125.81 591.486C125.113 593.106 123.944 594.45 122.201 595.178L120.806 593.147C123.431 592.02 124.498 589.702 124.498 587.59V585.437H127.041V587.59ZM137.11 584.37V595.67H134.629V591.035H133.07V595.567H130.63V584.657H133.07V588.902H134.629V584.37H137.11ZM137.11 596.49V603.012H134.506V598.582H124.211V596.49H137.11Z" fill="white"/>
<path d="M664.852 188.938V190.956H662.325V193.505H664.725V195.522H650.473V193.505H652.852V190.956H650.345V188.938H664.852ZM666.424 196.542V198.666H648.795V196.542H666.424ZM664.279 199.77V204.549H653.51V205.611H664.788V207.608H650.855V202.701H661.602V201.724H650.834V199.77H664.279ZM655.57 193.505H659.606V190.956H655.57V193.505ZM674.44 190.34V197.668H670.192V200.96C672.071 200.939 673.856 200.854 675.863 200.471L676.096 202.68C673.569 203.148 671.402 203.19 668.96 203.211H667.6V195.522H671.827V192.485H667.579V190.34H674.44ZM683.764 188.407V207.735H681.194V188.407H683.764ZM679.75 188.768V206.801H677.222V197.2H675.247V195.013H677.222V188.768H679.75ZM701.486 188.407V207.778H698.746V188.407H701.486ZM690.994 189.767C693.904 189.767 696.07 192.443 696.07 196.648C696.07 200.896 693.904 203.551 690.994 203.551C688.02 203.551 685.854 200.896 685.875 196.648C685.854 192.443 688.02 189.767 690.994 189.767ZM690.994 192.209C689.486 192.209 688.488 193.781 688.488 196.648C688.488 199.537 689.486 201.087 690.994 201.087C692.459 201.087 693.458 199.537 693.458 196.648C693.458 193.781 692.459 192.209 690.994 192.209ZM713.729 190.956C713.729 193.781 716.235 196.818 720.61 197.561L719.421 199.813C716.055 199.144 713.548 197.254 712.306 194.758C711.021 197.232 708.514 199.133 705.169 199.813L704.001 197.561C708.291 196.797 710.819 193.76 710.84 190.956V189.554H713.729V190.956ZM721.248 203.126V205.356H703.555V203.126H721.248Z" fill="white"/>
<path d="M659.818 386.105V388.272H658.098V396.704C658.884 396.64 659.648 396.566 660.392 396.47L660.54 398.424C656.59 399.125 652.151 399.189 648.837 399.21L648.54 397.001L650.749 396.98V388.272H649.028V386.105H659.818ZM664.045 384.321V391.67H666.891V393.879H664.045V403.649H661.326V384.321H664.045ZM653.361 396.938L655.485 396.853V388.272H653.361V396.938ZM683.551 384.342V403.649H680.79V399.38H676.861V397.341H680.79V384.342H683.551ZM666.963 394.134C670.574 394.134 675.395 394.113 679.558 393.561L679.707 395.536C678.008 395.844 676.256 396.035 674.546 396.152V403.076H671.806V396.279C670.202 396.332 668.684 396.343 667.303 396.343L666.963 394.134ZM673.293 385.107C676.139 385.107 678.242 386.764 678.263 389.079C678.242 391.458 676.139 393.03 673.293 393.03C670.404 393.03 668.323 391.458 668.323 389.079C668.323 386.764 670.404 385.107 673.293 385.107ZM673.293 387.167C671.848 387.167 670.871 387.911 670.871 389.079C670.871 390.29 671.848 390.969 673.293 390.969C674.695 390.969 675.672 390.29 675.693 389.079C675.672 387.911 674.695 387.167 673.293 387.167ZM701.486 384.342V396.088H698.768V384.342H701.486ZM695.263 385.468V391.33H688.976V393.072C692.205 393.051 694.477 392.945 697.09 392.541L697.429 394.707C694.456 395.196 691.865 395.281 688.02 395.281H686.321V389.313H692.566V387.656H686.3V385.468H695.263ZM694.923 396.407C699.065 396.407 701.592 397.702 701.614 400.017C701.592 402.311 699.065 403.649 694.923 403.649C690.803 403.649 688.275 402.311 688.275 400.017C688.275 397.702 690.803 396.407 694.923 396.407ZM694.923 398.509C692.332 398.509 690.973 398.998 690.973 400.017C690.973 401.037 692.332 401.547 694.923 401.547C697.514 401.547 698.874 401.037 698.895 400.017C698.874 398.998 697.514 398.509 694.923 398.509ZM719.379 386.02V388.272C719.379 391.075 719.379 393.773 718.487 397.957L715.789 397.702C716.171 396.088 716.384 394.676 716.532 393.369L705.318 393.922L704.978 391.755L716.66 391.33C716.713 390.279 716.713 389.27 716.724 388.272V388.187H705.573V386.02H719.379ZM721.184 399.125V401.334H703.555V399.125H721.184Z" fill="white"/>
<path d="M662.849 599.577V600.937H670.602V599.577H673.299V606.077H660.173V599.577H662.849ZM662.849 604.059H670.602V602.891H662.849V604.059ZM675.55 607.139V609.241H657.922V607.139H675.55ZM673.405 610.388V615.273H662.637V616.42H673.915V618.459H659.982V613.383H670.729V612.364H659.961V610.388H673.405ZM693.868 614.211V616.442H676.175V614.211H683.63V611.302H678.214V604.802H689.152V602.678H678.193V600.512H691.829V606.926H680.933V609.093H692.275V611.302H686.327V614.211H693.868ZM709.891 601.043V603.358C709.891 606.013 709.891 608.647 709.19 612.64L706.45 612.406C707.172 608.689 707.172 605.928 707.193 603.358V603.209H696.255V601.043H709.891ZM712.057 613.829V616.059H694.428V613.829H712.057Z" fill="white"/>
<path d="M983.32 201.852V207.523H969.83V201.852H983.32ZM972.51 203.87V205.505H980.67V203.87H972.51ZM984.51 189.788V191.827H968.64V189.788H975.25V188.237H977.97V189.788H984.51ZM976.61 192.315C980.79 192.337 983.11 193.25 983.11 195.076C983.11 196.691 981.29 197.615 977.97 197.795V198.751H985.42V200.875H967.79V198.751H975.25V197.795C971.94 197.615 970.09 196.691 970.11 195.076C970.09 193.25 972.45 192.337 976.61 192.315ZM976.61 194.142C974.17 194.142 973 194.397 973 195.076C973 195.735 974.17 196.011 976.61 196.011C979.07 196.011 980.2 195.735 980.2 195.076C980.2 194.397 979.07 194.142 976.61 194.142ZM1002.96 188.407V207.735H1000.34V188.407H1002.96ZM999.05 188.789V206.822H996.48V197.859H994.61V195.438H996.48V188.789H999.05ZM995.05 190.595V192.783H993.82V200.811C994.36 200.769 994.88 200.716 995.37 200.641L995.56 202.595C992.51 203.254 988.55 203.317 986.13 203.317L985.84 201.087H987.45V192.783H986.2V190.595H995.05ZM989.85 201.045L991.36 200.981V192.783H989.85V201.045ZM1020.49 188.407V207.778H1017.75V188.407H1020.49ZM1009.99 189.767C1012.9 189.767 1015.07 192.443 1015.07 196.648C1015.07 200.896 1012.9 203.551 1009.99 203.551C1007.02 203.551 1004.85 200.896 1004.88 196.648C1004.85 192.443 1007.02 189.767 1009.99 189.767ZM1009.99 192.209C1008.49 192.209 1007.49 193.781 1007.49 196.648C1007.49 199.537 1008.49 201.087 1009.99 201.087C1011.46 201.087 1012.46 199.537 1012.46 196.648C1012.46 193.781 1011.46 192.209 1009.99 192.209ZM1030.05 193.675C1030.05 196.797 1031.65 200.131 1034.9 201.491L1033.43 203.615C1031.15 202.648 1029.57 200.726 1028.71 198.369C1027.83 200.928 1026.23 203.052 1023.96 204.103L1022.41 201.958C1025.61 200.535 1027.27 196.946 1027.27 193.675V192.485H1023.17V190.276H1034.09V192.485H1030.05V193.675ZM1038.74 188.407V207.735H1036V188.407H1038.74Z" fill="white"/>
<path d="M964.5 399.104V401.313H946.811V399.104H964.5ZM951.391 385.553V388.76H959.83V385.553H962.521V395.876H948.681V385.553H951.391ZM951.391 393.752H959.83V390.863H951.391V393.752ZM981.671 384.342V398.679H979.1V392.01H977.421V398.276H974.891V384.682H977.421V389.822H979.1V384.342H981.671ZM982.161 401.143V403.31H968.561V397.32H971.281V401.143H982.161ZM973.2 385.893V391.904H968.46V393.879C970.57 393.868 972.14 393.773 973.98 393.412L974.21 395.557C971.96 395.961 970.051 396.024 967.181 396.024H965.85V389.907H970.58V388.017H965.83V385.893H973.2ZM999.07 393.263V395.43H985.401V385.935H998.921V388.123H988.07V393.263H999.07ZM1001.01 399.062V401.292H983.311V399.062H1001.01ZM1010.96 384.64V385.999H1018.72V384.64H1021.41V391.139H1008.29V384.64H1010.96ZM1010.96 389.121H1018.72V387.953H1010.96V389.121ZM1023.66 392.201V394.304H1006.04V392.201H1023.66ZM1021.52 395.451V400.336H1010.75V401.483H1022.03V403.522H1008.1V398.446H1018.84V397.426H1008.08V395.451H1021.52ZM1041.98 399.274V401.504H1024.29V399.274H1031.74V396.364H1026.33V389.865H1037.27V387.741H1026.31V385.574H1039.94V391.989H1029.05V394.155H1040.39V396.364H1034.44V399.274H1041.98ZM1058.01 386.105V388.421C1058.01 391.075 1058.01 393.709 1057.3 397.702L1054.56 397.469C1055.29 393.752 1055.29 390.991 1055.31 388.421V388.272H1044.37V386.105H1058.01ZM1060.17 398.892V401.122H1042.54V398.892H1060.17Z" fill="white"/>
<path d="M926.87 626.415V645.743H924.25V626.415H926.87ZM922.96 626.797V644.83H920.39V635.867H918.52V633.445H920.39V626.797H922.96ZM918.96 628.603V630.79H917.73V638.819C918.27 638.776 918.79 638.723 919.28 638.649L919.47 640.603C916.42 641.262 912.46 641.325 910.04 641.325L909.75 639.095H911.36V630.79H910.11V628.603H918.96ZM913.76 639.053L915.27 638.989V630.79H913.76V639.053ZM944.4 626.415V645.786H941.66V626.415H944.4ZM933.9 627.774C936.81 627.774 938.98 630.451 938.98 634.656C938.98 638.904 936.81 641.559 933.9 641.559C930.93 641.559 928.76 638.904 928.79 634.656C928.76 630.451 930.93 627.774 933.9 627.774ZM933.9 630.217C932.4 630.217 931.4 631.789 931.4 634.656C931.4 637.545 932.4 639.095 933.9 639.095C935.37 639.095 936.37 637.545 936.37 634.656C936.37 631.789 935.37 630.217 933.9 630.217ZM956.64 628.964C956.64 631.789 959.15 634.826 963.52 635.569L962.33 637.821C958.96 637.152 956.46 635.261 955.22 632.766C953.93 635.24 951.42 637.141 948.08 637.821L946.91 635.569C951.2 634.805 953.73 631.767 953.75 628.964V627.562H956.64V628.964ZM964.16 641.134V643.364H946.47V641.134H964.16ZM982.35 635.633V637.757H974.85V639.435H980.2V645.743H977.5V641.601H966.67V639.435H972.17V637.757H964.72V635.633H982.35ZM969.65 626.882V628.645H977.4V626.882H980.1V634.359H966.97V626.882H969.65ZM969.65 632.235H977.4V630.642H969.65V632.235ZM987.05 642.217L985.22 648.271H982.97L984.03 642.217H987.05ZM1013.09 626.436V640.327H1010.38V626.436H1013.09ZM1013.6 643.237V645.403H1000.14V638.925H1002.88V643.237H1013.6ZM1002.5 627.668C1005.47 627.668 1007.78 629.707 1007.78 632.532C1007.78 635.421 1005.47 637.438 1002.5 637.438C999.52 637.438 997.21 635.421 997.21 632.532C997.21 629.707 999.52 627.668 1002.5 627.668ZM1002.5 630.026C1000.99 630.005 999.84 630.96 999.86 632.532C999.84 634.146 1000.99 635.081 1002.5 635.081C1003.96 635.081 1005.11 634.146 1005.11 632.532C1005.11 630.96 1003.96 630.005 1002.5 630.026ZM1025.34 628.964C1025.34 631.789 1027.84 634.826 1032.22 635.569L1031.03 637.821C1027.66 637.152 1025.16 635.261 1023.91 632.766C1022.63 635.24 1020.12 637.141 1016.78 637.821L1015.61 635.569C1019.9 634.805 1022.43 631.767 1022.45 628.964V627.562H1025.34V628.964ZM1032.86 641.134V643.364H1015.16V641.134H1032.86ZM1043.34 628.008V630.217H1036.92V633.403H1043.06V635.527H1036.92V639.18C1039.69 639.159 1041.94 639.042 1044.52 638.628L1044.78 640.816C1041.83 641.262 1039.19 641.346 1035.82 641.346H1034.18V628.008H1043.34ZM1048.67 626.415V633.743H1051.51V636.015H1048.67V645.743H1045.95V626.415H1048.67ZM1067.13 628.199V630.514C1067.13 633.169 1067.13 635.803 1066.43 639.796L1063.69 639.562C1064.41 635.845 1064.41 633.084 1064.43 630.514V630.366H1053.5V628.199H1067.13ZM1069.3 640.985V643.216H1051.67V640.985H1069.3ZM1086.53 626.436V637.821H1083.96V633.148H1082.28V637.672H1079.76V626.776H1082.28V630.982H1083.96V626.436H1086.53ZM1086.53 638.607V645.531H1073.34V638.607H1086.53ZM1076.04 640.752V643.364H1083.86V640.752H1076.04ZM1078.06 627.562V633.318H1073.32V635.06C1075.43 635.038 1077.01 634.953 1078.84 634.614L1079.08 636.737C1076.83 637.12 1074.91 637.162 1072.05 637.162H1070.71V631.3H1075.45V629.665H1070.69V627.562H1078.06ZM1092.25 642.217L1090.43 648.271H1088.18L1089.24 642.217H1092.25ZM975.23 657.964C975.23 660.789 977.74 663.826 982.12 664.569L980.93 666.821C977.56 666.152 975.05 664.261 973.81 661.766C972.53 664.24 970.02 666.141 966.67 666.821L965.51 664.569C969.8 663.805 972.32 660.767 972.35 657.964V656.562H975.23V657.964ZM982.75 670.134V672.364H965.06V670.134H982.75ZM990.71 657.348V664.675H986.46V667.968C988.34 667.946 990.12 667.861 992.13 667.479L992.36 669.688C989.83 670.155 987.67 670.198 985.23 670.219H983.87V662.53H988.09V659.493H983.84V657.348H990.71ZM1000.03 655.415V674.743H997.46V655.415H1000.03ZM996.02 655.776V673.809H993.49V664.208H991.51V662.021H993.49V655.776H996.02ZM1017.33 664.357V666.523H1003.65V657.029H1017.18V659.217H1006.32V664.357H1017.33ZM1019.26 670.155V672.386H1001.57V670.155H1019.26ZM1041.96 664.251V666.46H1024.29V664.251H1041.96ZM1039.94 660.746V662.891H1026.43V655.925H1039.84V658.112H1029.13V660.746H1039.94ZM1033.08 667.628C1037.27 667.628 1039.79 668.902 1039.82 671.175C1039.79 673.469 1037.27 674.743 1033.08 674.743C1028.86 674.743 1026.31 673.469 1026.31 671.175C1026.31 668.902 1028.86 667.628 1033.08 667.628ZM1033.08 669.688C1030.41 669.688 1029.05 670.198 1029.07 671.175C1029.05 672.194 1030.41 672.683 1033.08 672.683C1035.7 672.683 1037.08 672.194 1037.1 671.175C1037.08 670.198 1035.7 669.688 1033.08 669.688Z" fill="white"/>
<path d="M626.509 105.033L609.358 107.455L620.031 121.097L626.509 105.033ZM443 248.607L443.924 249.789L616.801 114.533L615.876 113.352L614.952 112.171L442.076 247.426L443 248.607Z" fill="url(#paint0_linear_112_359)" fill-opacity="0.6"/>
<path d="M633.218 522.32L616.067 519.898L626.74 506.257L633.218 522.32ZM449.709 378.746L450.633 377.565L623.51 512.82L622.585 514.002L621.661 515.183L448.785 379.927L449.709 378.746Z" fill="url(#paint1_linear_112_359)" fill-opacity="0.6"/>
<path d="M639 307L624 298.34V315.66L639 307ZM489 307V308.5H625.5V307V305.5H489V307Z" fill="url(#paint2_linear_112_359)" fill-opacity="0.6"/>
<path d="M1482 348L1467 339.34V356.66L1482 348ZM1302 348V349.5H1468.5V348V346.5H1302V348Z" fill="white" fill-opacity="0.6"/>
<path d="M1004 256V206" stroke="url(#paint3_linear_112_359)" stroke-opacity="0.6" stroke-width="3" stroke-miterlimit="1.55572" stroke-linejoin="bevel"/>
<path d="M1004 462V412" stroke="url(#paint4_linear_112_359)" stroke-opacity="0.6" stroke-width="3" stroke-miterlimit="1.55572" stroke-linejoin="bevel"/>
<path d="M950 110L935 101.34V118.66L950 110ZM734 110V111.5H936.5V110V108.5H734V110Z" fill="url(#paint5_linear_112_359)" fill-opacity="0.6"/>
<path d="M950 311L935 302.34V319.66L950 311ZM868 311V312.5H936.5V311V309.5H868V311Z" fill="white" fill-opacity="0.6"/>
<path d="M950 290L935 281.34V298.66L950 290ZM840 290V291.5H936.5V290V288.5H840V290Z" fill="white" fill-opacity="0.6"/>
<path d="M946 491L931 482.34V499.66L946 491ZM868 491V492.5H932.5V491V489.5H868V491Z" fill="white" fill-opacity="0.6"/>
<path d="M351 311L336 302.34V319.66L351 311ZM337.5 311V309.5H200V311V312.5H337.5V311Z" fill="url(#paint6_linear_112_359)" fill-opacity="0.6"/>
<path d="M1557.12 183.436C1557.12 186.45 1558.66 189.67 1561.8 190.982L1560.38 193.033C1558.18 192.1 1556.66 190.244 1555.83 187.968C1554.98 190.439 1553.43 192.49 1551.24 193.505L1549.74 191.434C1552.84 190.06 1554.44 186.594 1554.44 183.436V182.287H1550.48V180.154H1561.02V182.287H1557.12V183.436ZM1565.51 178.35V197.012H1562.87V178.35H1565.51ZM1583.14 178.37V191.782H1580.51V178.37H1583.14ZM1583.63 194.592V196.684H1570.63V190.429H1573.27V194.592H1583.63ZM1572.9 179.56C1575.77 179.56 1578.01 181.528 1578.01 184.256C1578.01 187.045 1575.77 188.993 1572.9 188.993C1570.03 188.993 1567.8 187.045 1567.8 184.256C1567.8 181.528 1570.03 179.56 1572.9 179.56ZM1572.9 181.836C1571.45 181.815 1570.34 182.738 1570.36 184.256C1570.34 185.814 1571.45 186.717 1572.9 186.717C1574.32 186.717 1575.43 185.814 1575.43 184.256C1575.43 182.738 1574.32 181.815 1572.9 181.836ZM1606.47 189.526V191.659H1599.23V197.032H1596.65V191.659H1589.45V189.526H1606.47ZM1604.91 180.503V182.554H1599.31C1599.61 184.194 1601.71 186.04 1605.57 186.471L1604.62 188.521C1601.47 188.163 1599.18 186.871 1597.96 185.158C1596.75 186.891 1594.44 188.163 1591.25 188.521L1590.31 186.471C1594.17 186.04 1596.29 184.205 1596.61 182.554H1590.99V180.503H1596.65V178.37H1599.23V180.503H1604.91ZM1613.94 182.738C1613.94 184.83 1615.32 186.983 1618.35 187.906L1617.1 189.937C1615.01 189.342 1613.53 188.06 1612.69 186.43C1611.86 188.193 1610.37 189.578 1608.22 190.244L1606.95 188.193C1609.99 187.291 1611.34 185.015 1611.34 182.738V182.595H1607.59V180.544H1611.34V178.473H1613.98V180.544H1617.72V182.595H1613.94V182.738ZM1622.8 178.37V192.213H1620.2V185.917H1617.1V183.805H1620.2V178.37H1622.8ZM1623.25 194.592V196.684H1610.42V191.023H1613.04V194.592H1623.25Z" fill="white"/>
<path d="M1555.98 392.578V394.649H1548.94V397.869H1546.36V394.649H1538.89V392.578H1555.98ZM1553.78 384.17V391.04H1541.03V384.17H1553.78ZM1543.59 386.2V389.01H1551.22V386.2H1543.59ZM1554.09 399.592V401.684H1540.9V396.249H1543.51V399.592H1554.09ZM1562.59 384.601C1565.54 384.58 1567.76 386.508 1567.76 389.174C1567.76 391.86 1565.54 393.768 1562.59 393.768C1559.64 393.768 1557.4 391.86 1557.4 389.174C1557.4 386.508 1559.64 384.58 1562.59 384.601ZM1562.59 386.856C1561.11 386.856 1559.99 387.718 1560.01 389.174C1559.99 390.65 1561.11 391.491 1562.59 391.491C1564.07 391.491 1565.19 390.65 1565.21 389.174C1565.19 387.718 1564.09 386.856 1562.59 386.856ZM1572.23 383.35V402.053H1569.62V383.35H1572.23ZM1556.62 396.105C1559.94 396.126 1564.56 396.064 1568.56 395.511L1568.76 397.397C1564.62 398.197 1560.19 398.238 1556.93 398.238L1556.62 396.105ZM1588.55 384.478V392.332H1579.42V384.478H1588.55ZM1582.01 386.508V390.281H1585.94V386.508H1582.01ZM1594.09 383.35V393.932H1591.48V383.35H1594.09ZM1594.41 394.957V396.905H1589.18C1589.47 398.177 1591.44 399.643 1595.13 400.002L1594.25 401.971C1591.14 401.684 1588.94 400.556 1587.81 399.079C1586.65 400.576 1584.44 401.673 1581.31 401.971L1580.41 400.002C1584.15 399.705 1586.12 398.208 1586.4 396.905H1581.17V394.957H1586.48V393.419H1589.1V394.957H1594.41ZM1616.15 383.35V392.742H1613.54V391.307H1609.28V389.317H1613.54V387.677H1609.48C1608.32 390.486 1605.66 392.281 1601.53 393.173L1600.64 391.04C1604.92 390.189 1606.9 388.425 1607.25 386.18H1601.69V384.067H1610.14C1610.14 384.631 1610.1 385.175 1610.02 385.688H1613.54V383.35H1616.15ZM1616.15 393.419V398.525H1606.39V399.756H1616.56V401.827H1603.76V396.598H1613.52V395.47H1603.74V393.419H1616.15ZM1634.18 383.35V402.012H1631.7V383.35H1634.18ZM1630.37 383.657V401.15H1627.91V391.86H1625.45V389.748H1627.91V383.657H1630.37ZM1623.95 388.354C1623.95 391.45 1624.91 394.588 1627.64 396.146L1626.1 398.074C1624.44 397.09 1623.34 395.418 1622.72 393.419C1622.07 395.593 1620.94 397.438 1619.23 398.484L1617.65 396.557C1620.4 394.875 1621.43 391.512 1621.43 388.354V387.349H1618.37V385.257H1626.78V387.349H1623.95V388.354Z" fill="white"/>
<path d="M1536.1 588.35V607.012H1533.6V597.66H1532.02V606.15H1529.54V600.798L1528.06 602.767C1526.33 601.854 1525.21 600.306 1524.55 598.378C1523.93 600.593 1522.82 602.387 1521.04 603.443L1519.42 601.434C1522.25 599.834 1523.22 596.532 1523.22 592.964V592.369H1520.06V590.277H1528.61V592.369H1525.76V592.964C1525.76 596.214 1526.73 599.311 1529.54 600.757V588.616H1532.02V595.527H1533.6V588.35H1536.1ZM1552.47 589.437V591.118C1552.47 592.861 1552.47 594.769 1552 597.373H1554.46V599.485H1547.18V607.032H1544.55V599.485H1537.44V597.373H1549.35C1549.83 594.963 1549.87 593.138 1549.87 591.528H1539.39V589.437H1552.47ZM1571.24 588.35V607.012H1568.74V597.599H1567.06V606.15H1564.58V588.616H1567.06V595.466H1568.74V588.35H1571.24ZM1563.02 590.277V602.315H1555.6V590.277H1563.02ZM1558.04 592.349V600.265H1560.58V592.349H1558.04ZM1579.74 589.58L1574.94 607.36H1572.34L1577.12 589.58H1579.74ZM1590.56 589.601V591.692H1586.85C1586.87 593.866 1588.17 595.968 1591.15 596.84L1589.9 598.891C1587.84 598.265 1586.42 597.014 1585.6 595.404C1584.76 597.291 1583.25 598.788 1581 599.526L1579.67 597.455C1582.77 596.481 1584.16 594.061 1584.2 591.692H1580.39V589.601H1590.56ZM1594.76 588.35V592.677H1597.28V594.81H1594.76V599.424H1592.14V588.35H1594.76ZM1588.65 599.793C1592.53 599.772 1594.95 601.105 1594.95 603.382C1594.95 605.658 1592.53 607.012 1588.65 607.012C1584.69 607.012 1582.25 605.658 1582.25 603.382C1582.25 601.105 1584.69 599.772 1588.65 599.793ZM1588.65 601.823C1586.19 601.823 1584.86 602.336 1584.88 603.382C1584.86 604.448 1586.19 604.981 1588.65 604.981C1591.07 604.981 1592.36 604.448 1592.36 603.382C1592.36 602.336 1591.07 601.823 1588.65 601.823ZM1613.27 588.35V607.012H1610.62V588.35H1613.27ZM1607.67 590.298C1607.67 595.958 1605.68 600.654 1599.02 603.812L1597.64 601.721C1602.46 599.444 1604.58 596.491 1605 592.349H1598.65V590.298H1607.67ZM1634.9 589.97V591.733C1634.9 594.071 1634.9 596.696 1634.14 600.654L1631.52 600.388C1632.22 596.86 1632.25 594.235 1632.28 592.041H1621.28V589.97H1634.9ZM1636.54 602.603V604.735H1619.52V602.603H1625.61V596.184H1628.21V602.603H1636.54ZM1653.18 588.37V599.301H1650.7V594.789H1649.02V599.219H1646.56V588.698H1649.02V592.656H1650.7V588.37H1653.18ZM1653.18 600.019V607.012H1650.58V602.131H1640.16V600.019H1653.18ZM1645.29 589.642C1645.29 594.338 1643.03 597.496 1638.17 599.424L1636.94 597.476C1640.46 596.184 1642.22 594.256 1642.62 591.733H1637.84V589.642H1645.29Z" fill="white"/>
<path d="M946 525L931 516.34V533.66L946 525ZM734 525V526.5H932.5V525V523.5H734V525Z" fill="url(#paint7_linear_112_359)" fill-opacity="0.6"/>
<path d="M1071 534L1086 542.66V525.34L1071 534ZM1084.5 534V535.5H1148V534V532.5H1084.5V534Z" fill="white" fill-opacity="0.6"/>
<path d="M1225 442L1210 450.66V433.34L1225 442ZM1211.5 442V443.5H1148V442V440.5H1211.5V442Z" fill="white" fill-opacity="0.6"/>
<path d="M1061 314L1076 322.66V305.34L1061 314ZM1074.5 314V315.5H1148V314V312.5H1074.5V314Z" fill="white" fill-opacity="0.6"/>
<path d="M840 522V135" stroke="white" stroke-opacity="0.6" stroke-width="3" stroke-miterlimit="1.55572" stroke-linejoin="bevel"/>
<path d="M1148 534V314" stroke="white" stroke-opacity="0.6" stroke-width="3" stroke-miterlimit="1.55572" stroke-linejoin="bevel"/>
<path d="M1226 192L1211 200.66V183.34L1226 192ZM1212.5 192V193.5H1149V192V190.5H1212.5V192Z" fill="white" fill-opacity="0.6"/>
<path d="M1062 111L1077 119.66V102.34L1062 111ZM1075.5 111V112.5H1149V111V109.5H1075.5V111Z" fill="white" fill-opacity="0.6"/>
<path d="M1062 290L1077 298.66V281.34L1062 290ZM1075.5 290V291.5H1149V290V288.5H1075.5V290Z" fill="white" fill-opacity="0.6"/>
<path d="M1148 292L1149 111.003" stroke="white" stroke-opacity="0.6" stroke-width="3" stroke-miterlimit="1.55572" stroke-linejoin="bevel"/>
<path d="M868 493V111" stroke="white" stroke-opacity="0.6" stroke-width="3" stroke-miterlimit="1.55572" stroke-linejoin="bevel"/>
<path d="M950 135L935 126.34V143.66L950 135ZM840 135V136.5H936.5V135V133.5H840V135Z" fill="white" fill-opacity="0.6"/>
<path d="M1299 397V292" stroke="url(#paint8_linear_112_359)" stroke-opacity="0.6" stroke-width="3" stroke-miterlimit="1.55572" stroke-linejoin="bevel"/>
<path d="M1587 455V405" stroke="url(#paint9_linear_112_359)" stroke-opacity="0.6" stroke-width="3" stroke-miterlimit="1.55572" stroke-linejoin="bevel"/>
<path d="M1587 254V204" stroke="url(#paint10_linear_112_359)" stroke-opacity="0.6" stroke-width="3" stroke-miterlimit="1.55572" stroke-linejoin="bevel"/>
<defs>
<linearGradient id="paint0_linear_112_359" x1="443.308" y1="249.001" x2="626.817" y2="105.427" gradientUnits="userSpaceOnUse">
<stop stop-color="white" stop-opacity="0"/>
<stop offset="1" stop-color="white"/>
</linearGradient>
<linearGradient id="paint1_linear_112_359" x1="450.017" y1="378.352" x2="633.526" y2="521.926" gradientUnits="userSpaceOnUse">
<stop stop-color="white" stop-opacity="0"/>
<stop offset="1" stop-color="white"/>
</linearGradient>
<linearGradient id="paint2_linear_112_359" x1="489" y1="307.5" x2="639" y2="307.5" gradientUnits="userSpaceOnUse">
<stop stop-color="white" stop-opacity="0"/>
<stop offset="1" stop-color="white"/>
</linearGradient>
<linearGradient id="paint3_linear_112_359" x1="nan" y1="nan" x2="nan" y2="nan" gradientUnits="userSpaceOnUse">
<stop stop-color="white" stop-opacity="0"/>
<stop offset="0.5" stop-color="white"/>
<stop offset="1" stop-color="white" stop-opacity="0"/>
</linearGradient>
<linearGradient id="paint4_linear_112_359" x1="nan" y1="nan" x2="nan" y2="nan" gradientUnits="userSpaceOnUse">
<stop stop-color="white" stop-opacity="0"/>
<stop offset="0.5" stop-color="white"/>
<stop offset="1" stop-color="white" stop-opacity="0"/>
</linearGradient>
<linearGradient id="paint5_linear_112_359" x1="734" y1="110.5" x2="950" y2="110.5" gradientUnits="userSpaceOnUse">
<stop stop-color="white" stop-opacity="0"/>
<stop offset="1" stop-color="white"/>
</linearGradient>
<linearGradient id="paint6_linear_112_359" x1="351" y1="310.5" x2="200" y2="310.5" gradientUnits="userSpaceOnUse">
<stop stop-color="white"/>
<stop offset="1" stop-color="white" stop-opacity="0"/>
</linearGradient>
<linearGradient id="paint7_linear_112_359" x1="734" y1="525.5" x2="946" y2="525.5" gradientUnits="userSpaceOnUse">
<stop stop-color="white" stop-opacity="0"/>
<stop offset="1" stop-color="white"/>
</linearGradient>
<linearGradient id="paint8_linear_112_359" x1="nan" y1="nan" x2="nan" y2="nan" gradientUnits="userSpaceOnUse">
<stop stop-color="white" stop-opacity="0"/>
<stop offset="0.5" stop-color="white"/>
<stop offset="1" stop-color="white" stop-opacity="0"/>
</linearGradient>
<linearGradient id="paint9_linear_112_359" x1="nan" y1="nan" x2="nan" y2="nan" gradientUnits="userSpaceOnUse">
<stop stop-color="white" stop-opacity="0"/>
<stop offset="0.5" stop-color="white"/>
<stop offset="1" stop-color="white" stop-opacity="0"/>
</linearGradient>
<linearGradient id="paint10_linear_112_359" x1="nan" y1="nan" x2="nan" y2="nan" gradientUnits="userSpaceOnUse">
<stop stop-color="white" stop-opacity="0"/>
<stop offset="0.5" stop-color="white"/>
<stop offset="1" stop-color="white" stop-opacity="0"/>
</linearGradient>
</defs>
</svg>
