<svg width="93" height="91" viewBox="0 0 93 91" fill="none" xmlns="http://www.w3.org/2000/svg">
<path d="M72.1241 0H20.8242C9.77852 0 0.824219 8.9543 0.824219 20V70.3488C0.824219 81.3945 9.77852 90.3488 20.8242 90.3488H72.1241C83.1698 90.3488 92.1241 81.3945 92.1241 70.3488V20C92.1241 8.9543 83.1698 0 72.1241 0Z" fill="#00975E" fill-opacity="0.4"/>
<path d="M72.1239 0.417969H20.8239C10.0092 0.417969 1.24219 9.18499 1.24219 19.9997V70.3486C1.24219 81.1632 10.0092 89.9303 20.8239 89.9303H72.1239C82.9385 89.9303 91.7056 81.1632 91.7056 70.3486V19.9997C91.7056 9.18499 82.9385 0.417969 72.1239 0.417969Z" stroke="#28654E" stroke-opacity="0.7" stroke-width="0.836517"/>
<mask id="mask0_112_344" style="mask-type:luminance" maskUnits="userSpaceOnUse" x="16" y="20" width="62" height="51">
<path d="M16.041 20.9241H77.8586V70.3782H16.041V20.9241Z" fill="white"/>
</mask>
<g mask="url(#mask0_112_344)">
<path d="M34.562 45.685C40.533 45.685 45.365 40.84 45.365 34.852C45.365 28.865 40.533 24.02 34.562 24.02C28.591 24.02 23.759 28.865 23.759 34.852C23.759 40.84 28.591 45.685 34.562 45.685ZM41.97 48.781H41.169C39.163 49.748 36.935 50.328 34.562 50.328C32.189 50.328 29.97 49.748 27.954 48.781H27.154C21.019 48.781 16.042 53.771 16.042 59.923V62.709C16.042 65.272 18.116 67.351 20.672 67.351H48.452C51.008 67.351 53.082 65.272 53.082 62.709V59.923C53.082 53.771 48.104 48.781 41.97 48.781ZM62.342 45.685C67.454 45.685 71.602 41.526 71.602 36.4C71.602 31.274 67.454 27.115 62.342 27.115C57.229 27.115 53.082 31.274 53.082 36.4C53.082 41.526 57.229 45.685 62.342 45.685ZM66.972 48.781H66.605C65.264 49.245 63.846 49.554 62.342 49.554C60.837 49.554 59.419 49.245 58.078 48.781H57.712C55.744 48.781 53.931 49.351 52.339 50.27C54.693 52.814 56.168 56.189 56.168 59.923V63.637C56.168 63.85 56.12 64.053 56.11 64.256H73.145C75.701 64.256 77.775 62.177 77.775 59.613C77.775 53.626 72.942 48.781 66.972 48.781Z" fill="black"/>
</g>
</svg>
