<svg width="93" height="91" viewBox="0 0 93 91" fill="none" xmlns="http://www.w3.org/2000/svg">
<path d="M72.1241 0H20.8242C9.77852 0 0.824219 8.9543 0.824219 20V70.3488C0.824219 81.3945 9.77852 90.3488 20.8242 90.3488H72.1241C83.1698 90.3488 92.1241 81.3945 92.1241 70.3488V20C92.1241 8.9543 83.1698 0 72.1241 0Z" fill="#00975E" fill-opacity="0.4"/>
<path d="M72.1239 0.417969H20.8239C10.0092 0.417969 1.24219 9.18496 1.24219 19.9996V70.3485C1.24219 81.1632 10.0092 89.9302 20.8239 89.9302H72.1239C82.9385 89.9302 91.7056 81.1632 91.7056 70.3485V19.9996C91.7056 9.18496 82.9385 0.417969 72.1239 0.417969Z" stroke="#28654E" stroke-opacity="0.7" stroke-width="0.836517"/>
<mask id="mask0_112_345" style="mask-type:luminance" maskUnits="userSpaceOnUse" x="16" y="15" width="61" height="61">
<path d="M16.9922 15.217H76.9077V75.1326H16.9922V15.217Z" fill="white"/>
</mask>
<g mask="url(#mask0_112_345)">
<path d="M35.4262 47.048H39.7512L37.5882 40.8201L35.4262 47.048ZM58.1842 45.175C56.6362 45.175 55.3762 46.4361 55.3762 47.9841C55.3762 49.5321 56.6362 50.7921 58.1842 50.7921C59.7322 50.7921 60.9932 49.5321 60.9932 47.9841C60.9932 46.4361 59.7322 45.175 58.1842 45.175ZM71.2912 22.707H22.6092C19.5082 22.707 16.9922 25.223 16.9922 28.324V62.027C16.9922 65.128 19.5082 67.644 22.6092 67.644H71.2912C74.3922 67.644 76.9082 65.128 76.9082 62.027V28.324C76.9082 25.223 74.3922 22.707 71.2912 22.707ZM46.3162 56.41H44.3332C43.5362 56.41 42.8262 55.904 42.5642 55.152L41.7012 52.665H33.4762L32.6122 55.152C32.4852 55.519 32.2462 55.838 31.9292 56.063C31.6122 56.289 31.2322 56.41 30.8432 56.41H28.8612C27.5722 56.41 26.6692 55.14 27.0912 53.923L33.3752 35.8281C33.5672 35.2771 33.9252 34.7991 34.4012 34.4611C34.8762 34.1231 35.4452 33.941 36.0282 33.941H39.1482C39.7322 33.941 40.3012 34.1231 40.7762 34.4611C41.2522 34.7991 41.6102 35.277 41.8012 35.829L48.0842 53.923C48.5062 55.14 47.6032 56.41 46.3162 56.41ZM66.6102 54.537C66.6102 55.572 65.7722 56.41 64.7372 56.41H62.8652C62.2972 56.41 61.8072 56.1441 61.4632 55.7451C60.4542 56.1731 59.3462 56.41 58.1842 56.41C53.5382 56.41 49.7592 52.6301 49.7592 47.9841C49.7592 43.3381 53.5382 39.558 58.1842 39.558C59.1742 39.558 60.1102 39.761 60.9932 40.076V35.8141C60.9932 34.7791 61.8312 33.941 62.8652 33.941H64.7372C65.7722 33.941 66.6102 34.7791 66.6102 35.8141V54.537Z" fill="black"/>
</g>
</svg>
