<svg width="93" height="91" viewBox="0 0 93 91" fill="none" xmlns="http://www.w3.org/2000/svg">
<path d="M72.1241 0H20.8242C9.77852 0 0.824219 8.9543 0.824219 20V70.3488C0.824219 81.3945 9.77852 90.3488 20.8242 90.3488H72.1241C83.1698 90.3488 92.1241 81.3945 92.1241 70.3488V20C92.1241 8.9543 83.1698 0 72.1241 0Z" fill="#00975E" fill-opacity="0.4"/>
<path d="M72.1239 0.417969H20.8239C10.0092 0.417969 1.24219 9.18496 1.24219 19.9996V70.3485C1.24219 81.1632 10.0092 89.9302 20.8239 89.9302H72.1239C82.9385 89.9302 91.7056 81.1632 91.7056 70.3485V19.9996C91.7056 9.18496 82.9385 0.417969 72.1239 0.417969Z" stroke="#28654E" stroke-opacity="0.7" stroke-width="0.836517"/>
<mask id="mask0_112_346" style="mask-type:luminance" maskUnits="userSpaceOnUse" x="16" y="17" width="61" height="61">
<path d="M16.9922 17.1191H76.9077V77.0346H16.9922V17.1191Z" fill="white"/>
</mask>
<g mask="url(#mask0_112_346)">
<path d="M34.4683 52.069H38.5874C38.9204 52.069 39.2434 52.0071 39.5564 51.8821C39.8684 51.7571 40.1494 51.5701 40.3974 51.3201L52.0683 39.587C52.4423 39.212 52.7243 38.7851 52.9123 38.3061C53.1003 37.8271 53.1934 37.3591 53.1914 36.9031C53.1904 36.4471 53.0973 36.0001 52.9123 35.5621C52.7273 35.1251 52.4674 34.7191 52.1304 34.3441L49.8214 31.972C49.4474 31.598 49.0314 31.318 48.5734 31.131C48.1154 30.945 47.6373 30.8511 47.1373 30.8491C46.6803 30.8491 46.2224 30.943 45.7644 31.131C45.3074 31.319 44.8913 31.6 44.5163 31.972L32.7204 43.6431C32.4714 43.8931 32.2833 44.1741 32.1593 44.4871C32.0343 44.8001 31.9713 45.1221 31.9713 45.4531V49.5731C31.9713 50.2801 32.2114 50.8731 32.6904 51.3531C33.1704 51.8321 33.7623 52.071 34.4683 52.069ZM47.0754 39.337L44.7034 37.0281L47.1373 34.5941L49.4473 36.9651L47.0754 39.337ZM44.9534 52.069H59.4334C60.1404 52.069 60.7334 51.829 61.2134 51.35C61.6924 50.871 61.9313 50.2781 61.9293 49.5731C61.9273 48.8671 61.6883 48.274 61.2103 47.795C60.7323 47.316 60.1404 47.076 59.4334 47.076H49.9464L44.9534 52.069ZM31.9713 62.0551L26.2294 67.7971C25.4394 68.5871 24.5334 68.765 23.5134 68.329C22.4934 67.893 21.9844 67.1121 21.9854 65.9871V27.1041C21.9854 25.7311 22.4754 24.556 23.4534 23.579C24.4324 22.602 25.6073 22.1131 26.9783 22.1111H66.9223C68.2953 22.1111 69.4714 22.601 70.4504 23.579C71.4284 24.558 71.9174 25.7331 71.9154 27.1041V57.0621C71.9154 58.4351 71.4264 59.6111 70.4504 60.5901C69.4734 61.5681 68.2973 62.0571 66.9223 62.0551H31.9713Z" fill="black"/>
</g>
</svg>
