<svg width="136" height="134" viewBox="0 0 136 134" fill="none" xmlns="http://www.w3.org/2000/svg">
<path d="M106 0H30C13.4315 0 0 13.4315 0 30V104C0 120.569 13.4315 134 30 134H106C122.569 134 136 120.569 136 104V30C136 13.4315 122.569 0 106 0Z" fill="#00975E" fill-opacity="0.4"/>
<path d="M105.999 0.417969H29.9996C13.6621 0.417969 0.417969 13.6621 0.417969 29.9996V103.999C0.417969 120.337 13.6621 133.581 29.9996 133.581H105.999C122.337 133.581 135.581 120.337 135.581 103.999V29.9996C135.581 13.6621 122.337 0.417969 105.999 0.417969Z" stroke="#28654E" stroke-opacity="0.7" stroke-width="0.836517"/>
<mask id="mask0_112_347" style="mask-type:luminance" maskUnits="userSpaceOnUse" x="27" y="26" width="82" height="82">
<path d="M27.5801 26.6289H108.58V107.629H27.5801V26.6289Z" fill="white"/>
</mask>
<g mask="url(#mask0_112_347)">
<path d="M82.5021 69.9809L52.475 26.6289H27.5811V107.629H53.6561V64.2799L83.6871 107.629H108.581V26.6289H82.5021V69.9809Z" fill="black"/>
</g>
</svg>
