<svg width="91" height="91" viewBox="0 0 91 91" fill="none" xmlns="http://www.w3.org/2000/svg">
<path d="M71 0.656006H20C8.9543 0.656006 0 9.61031 0 20.656V70.656C0 81.7017 8.9543 90.656 20 90.656H71C82.0457 90.656 91 81.7017 91 70.656V20.656C91 9.61031 82.0457 0.656006 71 0.656006Z" fill="#00975E" fill-opacity="0.4"/>
<path d="M70.9998 1.07495H19.9996C9.18496 1.07495 0.417969 9.84197 0.417969 20.6566V70.6567C0.417969 81.4714 9.18496 90.2384 19.9996 90.2384H70.9998C81.8144 90.2384 90.5814 81.4714 90.5814 70.6567V20.6566C90.5814 9.84197 81.8144 1.07495 70.9998 1.07495Z" stroke="#28654E" stroke-opacity="0.7" stroke-width="0.836517"/>
<mask id="mask0_112_348" style="mask-type:luminance" maskUnits="userSpaceOnUse" x="8" y="8" width="76" height="77">
<path d="M8 8.26611H84V84.2661H8V8.26611Z" fill="white"/>
</mask>
<g mask="url(#mask0_112_348)">
<path d="M45.9991 14.6001C33.7441 14.6001 23.832 24.5111 23.832 36.7661C23.832 53.3911 45.9991 77.9331 45.9991 77.9331C45.9991 77.9331 68.165 53.3911 68.165 36.7661C68.165 24.5111 58.2541 14.6001 45.9991 14.6001ZM45.9991 44.6831C43.8991 44.6831 41.8851 43.8491 40.4011 42.3641C38.9161 40.8801 38.082 38.8661 38.082 36.7661C38.082 34.6671 38.9161 32.6531 40.4011 31.1681C41.8851 29.6841 43.8991 28.8501 45.9991 28.8501C48.0981 28.8501 50.112 29.6841 51.597 31.1681C53.081 32.6531 53.915 34.6671 53.915 36.7661C53.915 38.8661 53.081 40.8801 51.597 42.3641C50.112 43.8491 48.0981 44.6831 45.9991 44.6831Z" fill="black"/>
</g>
</svg>
