<svg width="91" height="91" viewBox="0 0 91 91" fill="none" xmlns="http://www.w3.org/2000/svg">
<path d="M71 0.570068H20C8.9543 0.570068 0 9.52437 0 20.5701V70.5701C0 81.6158 8.9543 90.5701 20 90.5701H71C82.0457 90.5701 91 81.6158 91 70.5701V20.5701C91 9.52437 82.0457 0.570068 71 0.570068Z" fill="#00975E" fill-opacity="0.4"/>
<path d="M70.9998 0.989014H19.9996C9.18496 0.989014 0.417969 9.756 0.417969 20.5707V70.5708C0.417969 81.3855 9.18496 90.1525 19.9996 90.1525H70.9998C81.8144 90.1525 90.5814 81.3855 90.5814 70.5708V20.5707C90.5814 9.756 81.8144 0.989014 70.9998 0.989014Z" stroke="#28654E" stroke-opacity="0.7" stroke-width="0.836517"/>
<mask id="mask0_112_349" style="mask-type:luminance" maskUnits="userSpaceOnUse" x="15" y="16" width="61" height="62">
<path d="M15 16.738H76V77.738H15V16.738Z" fill="white"/>
</mask>
<g mask="url(#mask0_112_349)">
<path d="M45.5 77.738C37.411 77.738 29.653 74.5251 23.933 68.8051C18.213 63.0851 15 55.327 15 47.238C15 39.149 18.213 31.3911 23.933 25.6721C29.653 19.9521 37.411 16.738 45.5 16.738C53.589 16.738 61.347 19.9521 67.067 25.6721C72.787 31.3911 76 39.149 76 47.238C76 55.327 72.787 63.0851 67.067 68.8051C61.347 74.5251 53.589 77.738 45.5 77.738ZM69.138 53.3381C70.171 49.3371 70.171 45.1391 69.138 41.1381H57.486C57.767 45.2001 57.767 49.2761 57.486 53.3381H69.138ZM66.637 59.438H56.815C56.306 63.115 55.332 66.712 53.918 70.144C59.276 68.167 63.775 64.38 66.637 59.438ZM39.644 53.3381H51.356C51.687 49.2781 51.687 45.1981 51.356 41.1381H39.644C39.313 45.1981 39.313 49.2781 39.644 53.3381ZM40.406 59.438C41.657 66.758 43.853 71.6381 45.5 71.6381C47.147 71.6381 49.343 66.758 50.593 59.438H40.406ZM21.862 53.3381H33.514C33.233 49.2761 33.233 45.2001 33.514 41.1381H21.862C20.829 45.1391 20.829 49.3371 21.862 53.3381ZM24.363 59.438C27.225 64.38 31.724 68.167 37.082 70.144C35.801 67.216 34.825 63.556 34.184 59.438H24.363ZM66.637 35.0381C63.775 30.0961 59.276 26.3091 53.918 24.3331C55.199 27.2611 56.175 30.9211 56.815 35.0381H66.637ZM40.406 35.0381H50.593C49.343 27.7181 47.147 22.8381 45.5 22.8381C43.853 22.8381 41.657 27.7181 40.406 35.0381ZM24.363 35.0381H34.184C34.795 30.9211 35.801 27.2611 37.082 24.3331C31.724 26.3091 27.225 30.0961 24.363 35.0381Z" fill="black"/>
</g>
</svg>
