<svg width="91" height="91" viewBox="0 0 91 91" fill="none" xmlns="http://www.w3.org/2000/svg">
<path d="M71 0.508057H20C8.9543 0.508057 0 9.46236 0 20.5081V70.5081C0 81.5537 8.9543 90.5081 20 90.5081H71C82.0457 90.5081 91 81.5537 91 70.5081V20.5081C91 9.46236 82.0457 0.508057 71 0.508057Z" fill="#00975E" fill-opacity="0.4"/>
<path d="M70.9998 0.926025H19.9996C9.18496 0.926025 0.417969 9.69302 0.417969 20.5077V70.5078C0.417969 81.3225 9.18496 90.0895 19.9996 90.0895H70.9998C81.8144 90.0895 90.5814 81.3225 90.5814 70.5078V20.5077C90.5814 9.69302 81.8144 0.926025 70.9998 0.926025Z" stroke="#28654E" stroke-opacity="0.7" stroke-width="0.836517"/>
<mask id="mask0_112_350" style="mask-type:luminance" maskUnits="userSpaceOnUse" x="18" y="22" width="56" height="53">
<path d="M18 22.3809H74V74.3809H18V22.3809Z" fill="white"/>
</mask>
<g mask="url(#mask0_112_350)">
<path d="M30.2199 41.5679C29.1559 41.5679 28.2939 42.4319 28.2939 43.4969C28.2939 44.5619 29.1559 45.4299 30.2199 45.4299C31.2849 45.4299 32.1469 44.5659 32.1469 43.4969C32.1469 42.4279 31.2849 41.5679 30.2199 41.5679Z" fill="black"/>
<path d="M49.2664 41.3669C48.1194 41.3669 47.1895 42.2979 47.1895 43.4459C47.1895 44.5949 48.1194 45.5259 49.2664 45.5259C50.4144 45.5259 51.3434 44.5949 51.3434 43.4459C51.3434 42.2979 50.4144 41.3669 49.2664 41.3669Z" fill="black"/>
<path d="M66.511 22.3809H25.493C21.355 22.3809 18 25.7389 18 29.8819V54.2539C18 58.3969 21.355 61.7549 25.493 61.7549H39.979L44.908 73.3789C44.908 73.3789 45.248 74.3849 46.067 74.3849C46.89 74.3849 47.226 73.3789 47.226 73.3789L52.155 61.7549H66.511C70.649 61.7549 74.004 58.3969 74.004 54.2539V29.8819C74.004 25.7389 70.649 22.3809 66.511 22.3809ZM35.592 43.9249C35.568 48.3809 30.968 48.5079 30.968 48.5079C29.187 48.5079 28.183 47.3269 28.183 47.3269V48.1309H24.832V34.2939C24.832 34.2939 24.816 34.2899 24.832 34.2859V34.2939C25.042 34.3249 28.183 34.2859 28.183 34.2859V39.5769C28.97 38.2299 31.248 38.2539 31.248 38.2539C36.209 38.7169 35.588 43.9249 35.588 43.9249H35.592ZM41.494 38.6819V48.1549H38.215V38.7769C38.215 37.5019 36.632 37.1449 36.632 37.1449V33.8379C41.87 34.0519 41.494 38.6819 41.494 38.6819ZM49.268 48.5159C46.229 48.5159 43.769 46.2459 43.769 43.4499C43.769 40.6539 46.229 38.3849 49.268 38.3849C52.306 38.3849 54.766 40.6539 54.766 43.4499C54.766 46.2459 52.306 48.5159 49.268 48.5159ZM67.235 48.5159C67.235 48.5159 67.283 53.3269 62.397 53.3269H60.91V50.2109H61.808C61.808 50.2109 63.861 50.4009 63.837 47.2319C63.837 47.2319 63.438 48.5159 60.558 48.5159C60.558 48.5159 56.475 48.2219 56.475 44.2339V42.7209C56.475 42.7209 56.57 38.5869 61.052 38.2579C61.052 38.2579 62.821 38.0679 63.908 39.5329V38.5189H67.235V48.5189V48.5159Z" fill="black"/>
<path d="M62.0222 41.4138C60.9022 41.4138 59.9922 42.3248 59.9922 43.4458C59.9922 44.5668 60.9022 45.4768 62.0222 45.4768C63.1412 45.4768 64.0512 44.5668 64.0512 43.4458C64.0512 42.3248 63.1412 41.4138 62.0222 41.4138Z" fill="black"/>
</g>
</svg>
