<svg width="91" height="91" viewBox="0 0 91 91" fill="none" xmlns="http://www.w3.org/2000/svg">
<path d="M71 0.656006H20C8.9543 0.656006 0 9.61031 0 20.656V70.656C0 81.7017 8.9543 90.656 20 90.656H71C82.0457 90.656 91 81.7017 91 70.656V20.656C91 9.61031 82.0457 0.656006 71 0.656006Z" fill="#00975E" fill-opacity="0.4"/>
<path d="M71.0017 1.07495H20.0016C9.18691 1.07495 0.419922 9.84197 0.419922 20.6566V70.6567C0.419922 81.4714 9.18691 90.2384 20.0016 90.2384H71.0017C81.8164 90.2384 90.5834 81.4714 90.5834 70.6567V20.6566C90.5834 9.84197 81.8164 1.07495 71.0017 1.07495Z" stroke="#28654E" stroke-opacity="0.7" stroke-width="0.836517"/>
<mask id="mask0_112_351" style="mask-type:luminance" maskUnits="userSpaceOnUse" x="7" y="7" width="78" height="79">
<path d="M7 7.31396H85V85.314H7V7.31396Z" fill="white"/>
</mask>
<g mask="url(#mask0_112_351)">
<path d="M20 69.064V39.814C20 38.785 20.2299 37.81 20.6899 36.889C21.1499 35.969 21.79 35.21 22.6 34.614L42.1 19.989C43.24 19.123 44.54 18.689 46 18.689C47.46 18.689 48.76 19.123 49.9 19.989L69.4 34.614C70.21 35.21 70.8501 35.969 71.3101 36.889C71.7701 37.81 72 38.785 72 39.814V69.064C72 70.852 71.36 72.383 70.09 73.657C68.82 74.931 67.29 75.567 65.5 75.564H55.75C54.83 75.564 54.0599 75.252 53.4399 74.628C52.8099 74.004 52.5 73.233 52.5 72.314V56.064C52.5 55.144 52.1901 54.372 51.5601 53.75C50.9401 53.129 50.17 52.817 49.25 52.814H42.75C41.83 52.814 41.0599 53.126 40.4399 53.75C39.8099 54.374 39.5 55.146 39.5 56.064V72.314C39.5 73.235 39.1901 74.008 38.5601 74.632C37.9401 75.256 37.17 75.567 36.25 75.564H26.5C24.71 75.564 23.18 74.929 21.91 73.657C20.64 72.385 20 70.854 20 69.064Z" fill="black"/>
</g>
</svg>
