<svg width="91" height="91" viewBox="0 0 91 91" fill="none" xmlns="http://www.w3.org/2000/svg">
<path d="M71 0.570068H20C8.9543 0.570068 0 9.52437 0 20.5701V70.5701C0 81.6158 8.9543 90.5701 20 90.5701H71C82.0457 90.5701 91 81.6158 91 70.5701V20.5701C91 9.52437 82.0457 0.570068 71 0.570068Z" fill="#00975E" fill-opacity="0.4"/>
<path d="M71.0017 0.989014H20.0016C9.18691 0.989014 0.419922 9.756 0.419922 20.5707V70.5708C0.419922 81.3855 9.18691 90.1525 20.0016 90.1525H71.0017C81.8164 90.1525 90.5834 81.3855 90.5834 70.5708V20.5707C90.5834 9.756 81.8164 0.989014 71.0017 0.989014Z" stroke="#28654E" stroke-opacity="0.7" stroke-width="0.836517"/>
<mask id="mask0_112_352" style="mask-type:luminance" maskUnits="userSpaceOnUse" x="14" y="32" width="62" height="29">
<path d="M14 32.906H76V60.906H14V32.906Z" fill="white"/>
</mask>
<g mask="url(#mask0_112_352)">
<path d="M22.95 39.1479C22.95 39.1479 20.79 39.1479 18.84 41.0609V33.3569H14V53.5889H18.89V52.0049C18.89 52.0049 20.04 54.0959 22.95 54.0959C22.95 54.0959 29.77 53.8439 29.77 46.5439C29.77 46.5439 29.52 39.1439 22.95 39.1439V39.1479ZM21.88 49.8259C20.17 49.8259 18.77 48.4269 18.77 46.7029C18.77 44.9789 20.17 43.5839 21.88 43.5839C23.6 43.5839 24.99 44.9829 24.99 46.7029C24.99 48.4239 23.6 49.8259 21.88 49.8259Z" fill="black"/>
<path d="M31.3203 32.906V37.587C31.3203 37.587 33.5304 37.487 33.5304 41.612V53.589H38.1903V40.506C38.1903 40.506 38.3903 32.906 31.3203 32.906Z" fill="black"/>
<path d="M49.5905 39.2109C49.5905 39.2109 41.6005 39.2109 41.6005 46.7029C41.6005 46.7029 41.3405 54.0959 49.5905 54.0959C49.5905 54.0959 57.7706 54.0849 57.7706 46.7029C57.7706 46.7029 58.0405 39.2109 49.5905 39.2109ZM49.5905 49.8259C47.8805 49.8259 46.4805 48.4279 46.4805 46.7029C46.4805 44.9789 47.8805 43.5839 49.5905 43.5839C51.3105 43.5839 52.7005 44.9829 52.7005 46.7029C52.7005 48.4239 51.3105 49.8259 49.5905 49.8259Z" fill="black"/>
<path d="M71.1198 39.7019V41.0599C71.1198 41.0599 69.7299 39.2099 67.0599 39.2099C67.0599 39.2099 60.2198 38.9219 60.2198 46.6509C60.2198 46.6509 60.1398 53.8548 66.8698 53.8548C66.8698 53.8548 69.6198 53.9659 71.1198 52.0049V53.1369C71.1198 53.1369 71.4598 56.6849 68.0398 56.6849H66.8698V60.9878H68.7498C68.7498 60.9878 75.8197 61.0659 75.8197 53.4029V39.7019H71.1198ZM68.2298 49.8258C66.5098 49.8258 65.1198 48.4269 65.1198 46.7029C65.1198 44.9789 66.5098 43.5838 68.2298 43.5838C69.9498 43.5838 71.3398 44.9819 71.3398 46.7029C71.3398 48.4229 69.9398 49.8258 68.2298 49.8258Z" fill="black"/>
</g>
</svg>
