<svg width="114" height="122" viewBox="0 0 114 122" fill="none" xmlns="http://www.w3.org/2000/svg">
<path d="M46.5566 0.850098H10C4.47715 0.850098 0 5.32725 0 10.8501V46.5057C0 52.0286 4.47715 56.5057 10 56.5057H46.5566C52.0795 56.5057 56.5566 52.0286 56.5566 46.5057V10.8501C56.5566 5.32725 52.0795 0.850098 46.5566 0.850098Z" fill="#00975E" fill-opacity="0.4"/>
<path d="M46.5551 1.271H9.99829C4.70828 1.271 0.419922 5.55941 0.419922 10.8494V46.505C0.419922 51.795 4.70828 56.0834 9.99829 56.0834H46.5551C51.8451 56.0834 56.1334 51.795 56.1334 46.505V10.8494C56.1334 5.55941 51.8451 1.271 46.5551 1.271Z" stroke="#28654E" stroke-opacity="0.7" stroke-width="0.843156"/>
<path d="M103.287 28.678H66.7305C61.2076 28.678 56.7305 33.1551 56.7305 38.678V74.3336C56.7305 79.8565 61.2076 84.3336 66.7305 84.3336H103.287C108.81 84.3336 113.287 79.8565 113.287 74.3336V38.678C113.287 33.1551 108.81 28.678 103.287 28.678Z" fill="#00975E" fill-opacity="0.4"/>
<path d="M103.286 29.0991H66.7288C61.4387 29.0991 57.1504 33.3875 57.1504 38.6776V74.3331C57.1504 79.6231 61.4387 83.9115 66.7288 83.9115H103.286C108.576 83.9115 112.864 79.6231 112.864 74.3331V38.6776C112.864 33.3875 108.576 29.0991 103.286 29.0991Z" stroke="#28654E" stroke-opacity="0.7" stroke-width="0.843156"/>
<path d="M53.2667 66.1021H16.71C11.1871 66.1021 6.70996 70.5792 6.70996 76.1021V111.758C6.70996 117.281 11.1871 121.758 16.71 121.758H53.2667C58.7896 121.758 63.2667 117.281 63.2667 111.758V76.1021C63.2667 70.5792 58.7896 66.1021 53.2667 66.1021Z" fill="#00975E" fill-opacity="0.4"/>
<path d="M53.265 66.5229H16.7083C11.4182 66.5229 7.12988 70.8114 7.12988 76.1014V111.757C7.12988 117.047 11.4182 121.335 16.7083 121.335H53.265C58.555 121.335 62.8435 117.047 62.8435 111.757V76.1014C62.8435 70.8114 58.555 66.5229 53.265 66.5229Z" stroke="#28654E" stroke-opacity="0.7" stroke-width="0.843156"/>
<mask id="mask0_112_353" style="mask-type:luminance" maskUnits="userSpaceOnUse" x="2" y="3" width="52" height="52">
<path d="M43.6851 3.729H12.8799C7.35704 3.729 2.87988 8.20616 2.87988 13.729V44.5867C2.87988 50.1095 7.35704 54.5867 12.8799 54.5867H43.6851C49.2079 54.5867 53.6851 50.1095 53.6851 44.5867V13.729C53.6851 8.20616 49.2079 3.729 43.6851 3.729Z" fill="white"/>
</mask>
<g mask="url(#mask0_112_353)">
<path d="M22.3502 49.2879H30.8103V32.3139H38.4402L39.2803 23.8799H30.8103V19.6208C30.8103 19.0588 31.0403 18.5199 31.4303 18.1219C31.8303 17.7249 32.3703 17.5019 32.9303 17.5019H39.2803V9.0249H32.9303C30.1203 9.0249 27.4302 10.1419 25.4502 12.1289C23.4602 14.1159 22.3502 16.8108 22.3502 19.6208V23.8799H18.1102L17.2803 32.3139H22.3502V49.2879Z" fill="black"/>
</g>
<mask id="mask1_112_353" style="mask-type:luminance" maskUnits="userSpaceOnUse" x="62" y="34" width="47" height="47">
<path d="M62.4805 34.436H108.013V80.0161H62.4805V34.436Z" fill="white"/>
</mask>
<g mask="url(#mask1_112_353)">
<path d="M77.4403 38.1931H93.5404C99.6804 38.1931 104.66 43.0791 104.66 49.0931V64.8781C104.66 67.7681 103.49 70.5411 101.4 72.5851C99.3204 74.6291 96.4904 75.7771 93.5404 75.7771H77.4403C71.3003 75.7771 66.3203 70.8911 66.3203 64.8781V49.0931C66.3203 46.2021 67.4903 43.4301 69.5703 41.3861C71.6603 39.3421 74.4903 38.1931 77.4403 38.1931ZM77.0504 41.9521C75.2204 41.9521 73.4704 42.6641 72.1704 43.9331C70.8804 45.2021 70.1504 46.9231 70.1504 48.7171V65.2531C70.1504 68.9931 73.2404 72.0191 77.0504 72.0191H93.9204C95.7504 72.0191 97.5104 71.3061 98.8004 70.0371C100.1 68.7681 100.83 67.0481 100.83 65.2531V48.7171C100.83 44.9771 97.7404 41.9521 93.9204 41.9521H77.0504ZM95.5504 44.7701C96.1904 44.7701 96.8004 45.0181 97.2504 45.4581C97.7004 45.8991 97.9503 46.4961 97.9503 47.1191C97.9503 47.7421 97.7004 48.3402 97.2504 48.7802C96.8004 49.2212 96.1904 49.4681 95.5504 49.4681C94.9204 49.4681 94.3104 49.2212 93.8604 48.7802C93.4104 48.3402 93.1604 47.7421 93.1604 47.1191C93.1604 46.4961 93.4104 45.8991 93.8604 45.4581C94.3104 45.0181 94.9204 44.7701 95.5504 44.7701ZM85.4904 47.5891C88.0304 47.5891 90.4704 48.5791 92.2704 50.3411C94.0604 52.1031 95.0703 54.4931 95.0703 56.9851C95.0703 59.4771 94.0604 61.8672 92.2704 63.6292C90.4704 65.3912 88.0304 66.3811 85.4904 66.3811C82.9504 66.3811 80.5103 65.3912 78.7103 63.6292C76.9103 61.8672 75.9004 59.4771 75.9004 56.9851C75.9004 54.4931 76.9103 52.1031 78.7103 50.3411C80.5103 48.5791 82.9504 47.5891 85.4904 47.5891ZM85.4904 51.3481C83.9604 51.3481 82.5004 51.9421 81.4204 52.9991C80.3404 54.0561 79.7404 55.4901 79.7404 56.9851C79.7404 58.4801 80.3404 59.9141 81.4204 60.9711C82.5004 62.0291 83.9604 62.6231 85.4904 62.6231C87.0104 62.6231 88.4804 62.0291 89.5604 60.9711C90.6304 59.9141 91.2404 58.4801 91.2404 56.9851C91.2404 55.4901 90.6304 54.0561 89.5604 52.9991C88.4804 51.9421 87.0104 51.3481 85.4904 51.3481Z" fill="black"/>
</g>
<mask id="mask2_112_353" style="mask-type:luminance" maskUnits="userSpaceOnUse" x="10" y="68" width="51" height="51">
<path d="M10.54 68.98H60.3866V118.878H10.54V68.98Z" fill="white"/>
</mask>
<g mask="url(#mask2_112_353)">
<path fill-rule="evenodd" clip-rule="evenodd" d="M21.8604 78.5919C25.0804 75.1639 29.7304 73.1389 35.5004 73.1389C44.9804 73.1389 51.2704 78.609 53.2604 86.189C53.4004 86.723 53.3204 87.2899 53.0404 87.7659C52.7704 88.2419 52.3104 88.5889 51.7804 88.7289C51.2504 88.8689 50.6803 88.7909 50.2003 88.5129C49.7303 88.2349 49.3804 87.7789 49.2404 87.2449C47.7304 81.5009 43.1004 77.2969 35.5004 77.2969C30.7504 77.2969 27.2304 78.937 24.9004 81.434C22.5404 83.954 21.2203 87.5109 21.2203 91.5909V96.2689C21.2203 100.348 22.5404 103.905 24.9004 106.423C27.2304 108.924 30.7504 110.562 35.5004 110.562C38.9404 110.562 41.6604 109.764 43.7604 108.473C45.8704 107.173 47.1203 105.45 47.4803 103.473C47.8803 101.194 47.3804 99.6299 46.5204 98.5009C46.0504 97.8939 45.4803 97.3729 44.8303 96.9609C44.5503 98.5179 44.0504 99.988 43.3004 101.14C40.5104 105.379 35.1804 105.743 31.6704 104.34C29.7604 103.581 28.1304 101.504 27.6304 99.2769C27.3204 98.0009 27.4204 96.6599 27.9204 95.4449C28.4704 94.1229 29.4903 92.9959 30.9403 92.1389C32.3803 91.2889 34.5104 90.898 36.6304 90.84C37.9104 90.805 39.2904 90.8899 40.6804 91.1169C40.3904 89.7649 39.9003 88.757 39.3403 88.239C38.3403 87.303 36.6704 86.644 35.0004 86.655C33.3904 86.667 32.0203 87.2889 31.2003 88.5989C30.9103 89.0659 30.4404 89.3989 29.9104 89.5229C29.3704 89.6469 28.8103 89.5519 28.3403 89.2599C27.8703 88.9679 27.5404 88.5019 27.4204 87.9639C27.2904 87.4269 27.3904 86.863 27.6804 86.395C29.4204 83.613 32.2803 82.5169 34.9703 82.4969C37.6103 82.4779 40.3304 83.4779 42.1704 85.1949C44.0404 86.9329 44.8404 89.7839 45.0504 92.3759C46.8604 93.1689 48.5803 94.3309 49.8403 95.9879C51.4603 98.1289 52.1603 100.89 51.5703 104.202C50.9603 107.579 48.8303 110.228 45.9403 112.013C43.1003 113.764 39.5904 114.72 35.5004 114.72C29.7304 114.72 25.0704 112.695 21.8704 109.267C18.6704 105.861 17.0703 101.233 17.0703 96.2689V91.5909C17.0703 86.6259 18.6704 81.9979 21.8704 78.5919H21.8604ZM40.8704 95.3849C39.5104 95.0919 38.1304 94.9629 36.7404 94.9979C34.8904 95.0479 33.5904 95.3989 33.0504 95.7199C32.2504 96.1919 31.9104 96.6719 31.7604 97.0439C31.5904 97.4609 31.5604 97.9199 31.6804 98.3539C31.9304 99.4679 32.7703 100.304 33.2103 100.477C35.5403 101.412 38.4703 100.917 39.8303 98.8549C40.3103 98.1109 40.7004 96.8589 40.8604 95.3849H40.8704Z" fill="black"/>
</g>
</svg>
