<svg width="91" height="90" viewBox="0 0 91 90" fill="none" xmlns="http://www.w3.org/2000/svg">
<path d="M71 0H20C8.9543 0 0 8.9543 0 20V70C0 81.0457 8.9543 90 20 90H71C82.0457 90 91 81.0457 91 70V20C91 8.9543 82.0457 0 71 0Z" fill="#00975E" fill-opacity="0.4"/>
<path d="M71.0017 0.417969H20.0016C9.18691 0.417969 0.419922 9.18499 0.419922 19.9997V69.9998C0.419922 80.8144 9.18691 89.5815 20.0016 89.5815H71.0017C81.8164 89.5815 90.5834 80.8144 90.5834 69.9998V19.9997C90.5834 9.18499 81.8164 0.417969 71.0017 0.417969Z" stroke="#28654E" stroke-opacity="0.7" stroke-width="0.836517"/>
<path d="M41.4604 15.8279H55.6605C55.8605 15.8229 56.0604 15.8969 56.2004 16.0449C56.3404 16.1869 56.4205 16.3809 56.4105 16.5799C56.2105 28.4559 44.5105 30.3519 44.4005 30.3689C44.3605 30.3689 44.3205 30.3809 44.2805 30.3809H29.2805C29.0705 30.3809 28.8705 30.2899 28.7305 30.1359C28.5905 29.9819 28.5205 29.7769 28.5405 29.5669C29.5505 17.6669 41.3504 15.8509 41.4604 15.8279ZM67.3705 53.9689H61.4504C60.3004 60.2829 55.9004 73.1729 38.9504 73.1729C16.5204 73.1779 16.0605 50.5639 16.0605 50.5639V36.9849C16.0605 36.5749 16.3905 36.2389 16.8105 36.2389H67.3705C72.2505 36.2389 76.2305 40.2129 76.2305 45.1039C76.2305 49.9949 72.2605 53.9689 67.3705 53.9689ZM67.1605 40.7489C64.7805 40.7489 62.8505 42.6729 62.8505 45.0529C62.8505 47.4329 64.7805 49.3509 67.1605 49.3509C69.5305 49.3509 71.4604 47.4269 71.4604 45.0529C71.4604 42.6789 69.5305 40.7489 67.1605 40.7489Z" fill="black"/>
</svg>
