<svg width="113" height="99" viewBox="0 0 113 99" fill="none" xmlns="http://www.w3.org/2000/svg">
<path d="M50.7734 0H10C4.47715 0 0 4.47715 0 10V49.9711C0 55.494 4.47715 59.9711 10 59.9711H50.7734C56.2963 59.9711 60.7734 55.494 60.7734 49.9711V10C60.7734 4.47715 56.2963 0 50.7734 0Z" fill="#00975E" fill-opacity="0.4"/>
<path d="M50.775 0.417969H10.0016C4.70974 0.417969 0.419922 4.70785 0.419922 9.99969V49.9708C0.419922 55.2627 4.70974 59.5526 10.0016 59.5526H50.775C56.0669 59.5526 60.3568 55.2627 60.3568 49.9708V9.99969C60.3568 4.70785 56.0669 0.417969 50.775 0.417969Z" stroke="#28654E" stroke-opacity="0.7" stroke-width="0.836517"/>
<mask id="mask0_112_355" style="mask-type:luminance" maskUnits="userSpaceOnUse" x="8" y="4" width="51" height="52">
<path d="M8.5498 4.76001H58.8778V55.2119H8.5498V4.76001Z" fill="white"/>
</mask>
<g mask="url(#mask0_112_355)">
<path d="M26.5894 34.2339L36.4493 28.5359L26.5894 22.8389V34.2339ZM48.5394 19.3629C48.7894 20.2559 48.9593 21.4519 49.0793 22.9719C49.2093 24.4909 49.2594 25.8019 49.2594 26.9409L49.3794 28.5359C49.3794 32.6959 49.0794 35.7529 48.5394 37.7089C48.0694 39.4189 46.9694 40.5199 45.2594 40.9949C44.3694 41.2419 42.7294 41.4129 40.2194 41.5269C37.7594 41.6599 35.4994 41.7169 33.4094 41.7169L30.3894 41.8309C22.4294 41.8309 17.4694 41.5269 15.5194 40.9949C13.8094 40.5199 12.7094 39.4189 12.2294 37.7089C11.9794 36.8169 11.8093 35.62 11.6993 34.101C11.5693 32.582 11.5094 31.271 11.5094 30.132L11.3994 28.5359C11.3994 24.3769 11.6994 21.3199 12.2294 19.3629C12.7094 17.6539 13.8094 16.5529 15.5194 16.0779C16.4094 15.8309 18.0394 15.66 20.5494 15.546C23.0194 15.413 25.2794 15.356 27.3694 15.356L30.3894 15.2419C38.3394 15.2419 43.2994 15.5459 45.2594 16.0779C46.9694 16.5529 48.0694 17.6539 48.5394 19.3629Z" fill="black"/>
</g>
<path d="M103.004 39.0291H62.2305C56.7076 39.0291 52.2305 43.5062 52.2305 49.0291V89.0002C52.2305 94.523 56.7076 99.0002 62.2305 99.0002H103.004C108.527 99.0002 113.004 94.523 113.004 89.0002V49.0291C113.004 43.5062 108.527 39.0291 103.004 39.0291Z" fill="#00975E" fill-opacity="0.4"/>
<path d="M102.996 39.448H62.2223C56.9304 39.448 52.6406 43.7379 52.6406 49.0297V89.0009C52.6406 94.2927 56.9304 98.5826 62.2223 98.5826H102.996C108.288 98.5826 112.578 94.2927 112.578 89.0009V49.0297C112.578 43.7379 108.288 39.448 102.996 39.448Z" stroke="#28654E" stroke-opacity="0.7" stroke-width="0.836517"/>
<mask id="mask1_112_355" style="mask-type:luminance" maskUnits="userSpaceOnUse" x="57" y="42" width="54" height="54">
<path d="M57.9199 42.8359H110.147V95.1917H57.9199V42.8359Z" fill="white"/>
</mask>
<g mask="url(#mask1_112_355)">
<path d="M94.0496 55.5329C92.5596 53.8299 91.7395 51.6439 91.7395 49.3809H85.0195V76.4309C84.9695 77.8959 84.3496 79.2829 83.2996 80.2999C82.2496 81.3179 80.8395 81.8859 79.3795 81.8849C76.2895 81.8849 73.7195 79.3549 73.7195 76.2129C73.7195 72.4609 77.3396 69.6469 81.0596 70.8029V63.9099C73.5496 62.9059 66.9795 68.7519 66.9795 76.2129C66.9795 83.4779 72.9795 88.6479 79.3595 88.6479C86.1895 88.6479 91.7395 83.0849 91.7395 76.2129V62.4919C94.4695 64.4549 97.7395 65.5079 101.099 65.5019V58.7609C101.099 58.7609 97.0096 58.9579 94.0496 55.5329Z" fill="black"/>
</g>
</svg>
