<svg width="92" height="91" viewBox="0 0 92 91" fill="none" xmlns="http://www.w3.org/2000/svg">
<path d="M71.2999 0H20C8.9543 0 0 8.9543 0 20V70.3488C0 81.3945 8.9543 90.3488 20 90.3488H71.2999C82.3456 90.3488 91.2999 81.3945 91.2999 70.3488V20C91.2999 8.9543 82.3456 0 71.2999 0Z" fill="#00975E" fill-opacity="0.4"/>
<path d="M71.3016 0.417969H20.0016C9.18691 0.417969 0.419922 9.18499 0.419922 19.9997V70.3486C0.419922 81.1632 9.18691 89.9303 20.0016 89.9303H71.3016C82.1163 89.9303 90.8833 81.1632 90.8833 70.3486V19.9997C90.8833 9.18499 82.1163 0.417969 71.3016 0.417969Z" stroke="#28654E" stroke-opacity="0.7" stroke-width="0.836517"/>
<mask id="mask0_112_356" style="mask-type:luminance" maskUnits="userSpaceOnUse" x="13" y="13" width="64" height="64">
<path d="M13 13H77V77H13V13Z" fill="white"/>
</mask>
<g mask="url(#mask0_112_356)">
<path d="M23.6702 69.001H26.3301V34.334H23.6702C22.2502 34.334 20.9001 34.896 19.9001 35.896C18.8901 36.896 18.3301 38.253 18.3301 39.667V63.667C18.3301 65.082 18.8901 66.438 19.9001 67.439C20.9001 68.439 22.2502 69.001 23.6702 69.001ZM66.3301 34.334H47.6702L50.6602 25.353C50.9302 24.551 51.0001 23.698 50.8701 22.862C50.7401 22.027 50.4202 21.234 49.9202 20.549C49.4302 19.864 48.7802 19.305 48.0302 18.92C47.2802 18.535 46.4401 18.334 45.6001 18.334H45.0001L31.6702 32.835V69.001H61.0001L71.4302 46.078L71.6702 45.001V39.667C71.6702 38.253 71.1001 36.896 70.1001 35.896C69.1001 34.896 67.7501 34.334 66.3301 34.334Z" fill="black"/>
</g>
</svg>
