<svg width="93" height="91" viewBox="0 0 93 91" fill="none" xmlns="http://www.w3.org/2000/svg">
<path d="M72.1202 0H20.8203C9.77462 0 0.820312 8.9543 0.820312 20V70.3488C0.820312 81.3945 9.77462 90.3488 20.8203 90.3488H72.1202C83.1659 90.3488 92.1202 81.3945 92.1202 70.3488V20C92.1202 8.9543 83.1659 0 72.1202 0Z" fill="#00975E" fill-opacity="0.4"/>
<path d="M72.1219 0.417969H20.8219C10.0072 0.417969 1.24023 9.18496 1.24023 19.9996V70.3485C1.24023 81.1632 10.0072 89.9302 20.8219 89.9302H72.1219C82.9366 89.9302 91.7036 81.1632 91.7036 70.3485V19.9996C91.7036 9.18496 82.9366 0.417969 72.1219 0.417969Z" stroke="#28654E" stroke-opacity="0.7" stroke-width="0.836517"/>
<mask id="mask0_112_357" style="mask-type:luminance" maskUnits="userSpaceOnUse" x="2" y="3" width="84" height="85">
<path d="M2 3.08594H86V87.0859H2V3.08594Z" fill="white"/>
</mask>
<g mask="url(#mask0_112_357)">
<path fill-rule="evenodd" clip-rule="evenodd" d="M71 23.0859V61.9749H57.11V73.0859L40.17 61.9749H21V23.0859H71ZM46.12 49.267C45.23 49.267 44.49 49.557 43.91 50.137C43.32 50.718 43.03 51.4419 43.03 52.3099C43.03 53.2219 43.32 53.97 43.89 54.556C44.47 55.142 45.21 55.4349 46.12 55.4349C47.01 55.4349 47.75 55.142 48.33 54.556C48.91 53.97 49.2 53.2379 49.2 52.3589C49.2 51.4689 48.91 50.731 48.33 50.145C47.75 49.56 47.01 49.267 46.12 49.267ZM47.33 31.5579C44.91 31.5579 42.49 32.1879 40.08 33.4459L41.53 37.0599C43.5 35.9419 45.1701 35.3829 46.5601 35.3829C47.4101 35.3829 48.0799 35.5869 48.5699 35.9929C49.0699 36.3999 49.3101 36.951 49.3101 37.645C49.3101 38.199 49.14 38.6819 48.78 39.0939C48.52 39.4029 48.02 39.8279 47.28 40.3699L45.53 41.6199C45.38 41.7299 45.24 41.8429 45.09 41.9579L44.79 42.2109C44.52 42.4549 44.3 42.734 44.14 43.049C43.85 43.592 43.71 44.5519 43.71 45.9299V47.3619H48.51V46.6949C48.51 45.7079 48.64 45.0209 48.89 44.6359C49.14 44.2509 49.81 43.695 50.89 42.968L51.4 42.6169C52.55 41.8059 53.37 41.0459 53.85 40.3389C54.41 39.5309 54.6801 38.557 54.6801 37.418C54.6801 35.736 54.11 34.3679 52.97 33.3159C51.68 32.1439 49.8 31.5579 47.33 31.5579Z" fill="black"/>
</g>
</svg>
