<svg width="92" height="91" viewBox="0 0 92 91" fill="none" xmlns="http://www.w3.org/2000/svg">
<path d="M71.2999 0H20C8.9543 0 0 8.9543 0 20V70.3488C0 81.3945 8.9543 90.3488 20 90.3488H71.2999C82.3456 90.3488 91.2999 81.3945 91.2999 70.3488V20C91.2999 8.9543 82.3456 0 71.2999 0Z" fill="#00975E" fill-opacity="0.4"/>
<path d="M71.3016 0.417969H20.0016C9.18691 0.417969 0.419922 9.18496 0.419922 19.9996V70.3485C0.419922 81.1632 9.18691 89.9302 20.0016 89.9302H71.3016C82.1163 89.9302 90.8833 81.1632 90.8833 70.3485V19.9996C90.8833 9.18496 82.1163 0.417969 71.3016 0.417969Z" stroke="#28654E" stroke-opacity="0.7" stroke-width="0.836517"/>
<mask id="mask0_112_358" style="mask-type:luminance" maskUnits="userSpaceOnUse" x="7" y="8" width="75" height="76">
<path d="M7 8.1499H82V83.1499H7V8.1499Z" fill="white"/>
</mask>
<g mask="url(#mask0_112_358)">
<path d="M16.3793 24.5567C15.7493 24.5567 15.1592 24.8037 14.7192 25.2427C14.2792 25.6827 14.0293 26.2788 14.0293 26.8998C14.0293 27.5218 14.2792 28.1177 14.7192 28.5577C15.1592 28.9967 15.7493 29.2438 16.3793 29.2438H21.5792L27.7292 53.8537C28.2492 55.9397 30.1193 57.3688 32.2693 57.3688H61.4893C63.6093 57.3688 65.4092 55.9627 65.9592 53.9237L72.0393 31.5878H67.1293L61.4893 52.6817H32.2693L26.1193 28.0718C25.8593 27.0628 25.2792 26.1678 24.4592 25.5298C23.6292 24.8928 22.6192 24.5497 21.5792 24.5567H16.3793ZM58.5593 57.3688C54.7093 57.3688 51.5293 60.5448 51.5293 64.3998C51.5293 68.2558 54.7093 71.4317 58.5593 71.4317C62.4193 71.4317 65.5892 68.2558 65.5892 64.3998C65.5892 60.5448 62.4193 57.3688 58.5593 57.3688ZM37.4692 57.3688C33.6092 57.3688 30.4392 60.5448 30.4392 64.3998C30.4392 68.2558 33.6092 71.4317 37.4692 71.4317C41.3192 71.4317 44.4993 68.2558 44.4993 64.3998C44.4993 60.5448 41.3192 57.3688 37.4692 57.3688ZM44.4993 24.5567V36.2748H37.4692L46.8392 45.6498L56.2192 36.2748H49.1892V24.5567H44.4993ZM37.4692 62.0567C38.7892 62.0567 39.8093 63.0788 39.8093 64.3998C39.8093 65.7218 38.7892 66.7438 37.4692 66.7438C36.1492 66.7438 35.1193 65.7218 35.1193 64.3998C35.1193 63.0788 36.1492 62.0567 37.4692 62.0567ZM58.5593 62.0567C59.8793 62.0567 60.9093 63.0788 60.9093 64.3998C60.9093 65.7218 59.8793 66.7438 58.5593 66.7438C57.2393 66.7438 56.2192 65.7218 56.2192 64.3998C56.2192 63.0788 57.2393 62.0567 58.5593 62.0567Z" fill="black"/>
</g>
</svg>
