<svg width="1686" height="675" viewBox="0 0 1686 675" fill="none" xmlns="http://www.w3.org/2000/svg">
<path d="M125.124 58H73.8242C62.7785 58 53.8242 66.9543 53.8242 78V128.349C53.8242 139.394 62.7785 148.349 73.8242 148.349H125.124C136.17 148.349 145.124 139.394 145.124 128.349V78C145.124 66.9543 136.17 58 125.124 58Z" fill="#00975E" fill-opacity="0.4"/>
<path d="M125.124 58.418H73.8239C63.0092 58.418 54.2422 67.185 54.2422 77.9997V128.349C54.2422 139.163 63.0092 147.93 73.8239 147.93H125.124C135.939 147.93 144.706 139.163 144.706 128.349V77.9997C144.706 67.185 135.939 58.418 125.124 58.418Z" stroke="#28654E" stroke-opacity="0.7" stroke-width="0.836517"/>
<mask id="mask0_113_368" style="mask-type:luminance" maskUnits="userSpaceOnUse" x="69" y="78" width="62" height="51">
<path d="M69.041 78.9241H130.859V128.378H69.041V78.9241Z" fill="white"/>
</mask>
<g mask="url(#mask0_113_368)">
<path d="M87.562 103.685C93.533 103.685 98.365 98.84 98.365 92.852C98.365 86.865 93.533 82.02 87.562 82.02C81.591 82.02 76.759 86.865 76.759 92.852C76.759 98.84 81.591 103.685 87.562 103.685ZM94.97 106.781H94.169C92.163 107.748 89.935 108.328 87.562 108.328C85.189 108.328 82.97 107.748 80.954 106.781H80.154C74.019 106.781 69.042 111.771 69.042 117.923V120.709C69.042 123.272 71.116 125.351 73.672 125.351H101.452C104.008 125.351 106.082 123.272 106.082 120.709V117.923C106.082 111.771 101.104 106.781 94.97 106.781ZM115.342 103.685C120.454 103.685 124.602 99.526 124.602 94.4C124.602 89.274 120.454 85.115 115.342 85.115C110.229 85.115 106.082 89.274 106.082 94.4C106.082 99.526 110.229 103.685 115.342 103.685ZM119.972 106.781H119.605C118.264 107.245 116.846 107.554 115.342 107.554C113.837 107.554 112.419 107.245 111.078 106.781H110.712C108.744 106.781 106.931 107.351 105.339 108.27C107.693 110.814 109.168 114.189 109.168 117.923V121.637C109.168 121.85 109.12 122.053 109.11 122.256H126.145C128.701 122.256 130.775 120.177 130.775 117.613C130.775 111.626 125.942 106.781 119.972 106.781Z" fill="black"/>
</g>
<path d="M125.124 263H73.8242C62.7785 263 53.8242 271.954 53.8242 283V333.349C53.8242 344.395 62.7785 353.349 73.8242 353.349H125.124C136.17 353.349 145.124 344.395 145.124 333.349V283C145.124 271.954 136.17 263 125.124 263Z" fill="#00975E" fill-opacity="0.4"/>
<path d="M125.124 263.418H73.8239C63.0092 263.418 54.2422 272.185 54.2422 283V333.349C54.2422 344.163 63.0092 352.93 73.8239 352.93H125.124C135.939 352.93 144.706 344.163 144.706 333.349V283C144.706 272.185 135.939 263.418 125.124 263.418Z" stroke="#28654E" stroke-opacity="0.7" stroke-width="0.836517"/>
<mask id="mask1_113_368" style="mask-type:luminance" maskUnits="userSpaceOnUse" x="69" y="278" width="61" height="61">
<path d="M69.9922 278.217H129.908V338.133H69.9922V278.217Z" fill="white"/>
</mask>
<g mask="url(#mask1_113_368)">
<path d="M88.4262 310.048H92.7512L90.5882 303.82L88.4262 310.048ZM111.184 308.175C109.636 308.175 108.376 309.436 108.376 310.984C108.376 312.532 109.636 313.792 111.184 313.792C112.732 313.792 113.993 312.532 113.993 310.984C113.993 309.436 112.732 308.175 111.184 308.175ZM124.291 285.707H75.6092C72.5082 285.707 69.9922 288.223 69.9922 291.324V325.027C69.9922 328.128 72.5082 330.644 75.6092 330.644H124.291C127.392 330.644 129.908 328.128 129.908 325.027V291.324C129.908 288.223 127.392 285.707 124.291 285.707ZM99.3162 319.41H97.3332C96.5362 319.41 95.8262 318.904 95.5642 318.152L94.7012 315.665H86.4762L85.6122 318.152C85.4852 318.519 85.2462 318.838 84.9292 319.063C84.6122 319.289 84.2322 319.41 83.8432 319.41H81.8612C80.5722 319.41 79.6692 318.14 80.0912 316.923L86.3752 298.828C86.5672 298.277 86.9252 297.799 87.4012 297.461C87.8762 297.123 88.4452 296.941 89.0282 296.941H92.1482C92.7322 296.941 93.3012 297.123 93.7762 297.461C94.2522 297.799 94.6102 298.277 94.8012 298.829L101.084 316.923C101.506 318.14 100.603 319.41 99.3162 319.41ZM119.61 317.537C119.61 318.572 118.772 319.41 117.737 319.41H115.865C115.297 319.41 114.807 319.144 114.463 318.745C113.454 319.173 112.346 319.41 111.184 319.41C106.538 319.41 102.759 315.63 102.759 310.984C102.759 306.338 106.538 302.558 111.184 302.558C112.174 302.558 113.11 302.761 113.993 303.076V298.814C113.993 297.779 114.831 296.941 115.865 296.941H117.737C118.772 296.941 119.61 297.779 119.61 298.814V317.537Z" fill="black"/>
</g>
<path d="M125.124 468H73.8242C62.7785 468 53.8242 476.954 53.8242 488V538.349C53.8242 549.395 62.7785 558.349 73.8242 558.349H125.124C136.17 558.349 145.124 549.395 145.124 538.349V488C145.124 476.954 136.17 468 125.124 468Z" fill="#00975E" fill-opacity="0.4"/>
<path d="M125.124 468.418H73.8239C63.0092 468.418 54.2422 477.185 54.2422 488V538.349C54.2422 549.163 63.0092 557.93 73.8239 557.93H125.124C135.939 557.93 144.706 549.163 144.706 538.349V488C144.706 477.185 135.939 468.418 125.124 468.418Z" stroke="#28654E" stroke-opacity="0.7" stroke-width="0.836517"/>
<mask id="mask2_113_368" style="mask-type:luminance" maskUnits="userSpaceOnUse" x="69" y="485" width="61" height="61">
<path d="M69.9922 485.119H129.908V545.035H69.9922V485.119Z" fill="white"/>
</mask>
<g mask="url(#mask2_113_368)">
<path d="M87.4683 520.069H91.5874C91.9204 520.069 92.2434 520.007 92.5564 519.882C92.8684 519.757 93.1494 519.57 93.3974 519.32L105.068 507.587C105.442 507.212 105.724 506.785 105.912 506.306C106.1 505.827 106.193 505.359 106.191 504.903C106.19 504.447 106.097 504 105.912 503.562C105.727 503.125 105.467 502.719 105.13 502.344L102.821 499.972C102.447 499.598 102.031 499.318 101.573 499.131C101.115 498.945 100.637 498.851 100.137 498.849C99.6803 498.849 99.2224 498.943 98.7644 499.131C98.3074 499.319 97.8913 499.6 97.5163 499.972L85.7204 511.643C85.4714 511.893 85.2833 512.174 85.1593 512.487C85.0343 512.8 84.9713 513.122 84.9713 513.453V517.573C84.9713 518.28 85.2114 518.873 85.6904 519.353C86.1704 519.832 86.7623 520.071 87.4683 520.069ZM100.075 507.337L97.7034 505.028L100.137 502.594L102.447 504.965L100.075 507.337ZM97.9534 520.069H112.433C113.14 520.069 113.733 519.829 114.213 519.35C114.692 518.871 114.931 518.278 114.929 517.573C114.927 516.867 114.688 516.274 114.21 515.795C113.732 515.316 113.14 515.076 112.433 515.076H102.946L97.9534 520.069ZM84.9713 530.055L79.2294 535.797C78.4394 536.587 77.5334 536.765 76.5134 536.329C75.4934 535.893 74.9844 535.112 74.9854 533.987V495.104C74.9854 493.731 75.4754 492.556 76.4534 491.579C77.4324 490.602 78.6073 490.113 79.9783 490.111H119.922C121.295 490.111 122.471 490.601 123.45 491.579C124.428 492.558 124.917 493.733 124.915 495.104V525.062C124.915 526.435 124.426 527.611 123.45 528.59C122.473 529.568 121.297 530.057 119.922 530.055H84.9713Z" fill="black"/>
</g>
<path d="M1292.77 412H1252C1246.48 412 1242 416.477 1242 422V461.971C1242 467.494 1246.48 471.971 1252 471.971H1292.77C1298.3 471.971 1302.77 467.494 1302.77 461.971V422C1302.77 416.477 1298.3 412 1292.77 412Z" fill="#00975E" fill-opacity="0.4"/>
<path d="M1292.78 412.418H1252C1246.71 412.418 1242.42 416.708 1242.42 422V461.971C1242.42 467.263 1246.71 471.553 1252 471.553H1292.78C1298.07 471.553 1302.36 467.263 1302.36 461.971V422C1302.36 416.708 1298.07 412.418 1292.78 412.418Z" stroke="#28654E" stroke-opacity="0.7" stroke-width="0.836517"/>
<mask id="mask3_113_368" style="mask-type:luminance" maskUnits="userSpaceOnUse" x="1250" y="416" width="51" height="52">
<path d="M1250.55 416.76H1300.88V467.212H1250.55V416.76Z" fill="white"/>
</mask>
<g mask="url(#mask3_113_368)">
<path d="M1268.59 446.234L1278.45 440.536L1268.59 434.839V446.234ZM1290.54 431.363C1290.79 432.256 1290.96 433.452 1291.08 434.972C1291.21 436.491 1291.26 437.802 1291.26 438.941L1291.38 440.536C1291.38 444.696 1291.08 447.753 1290.54 449.709C1290.07 451.419 1288.97 452.52 1287.26 452.995C1286.37 453.242 1284.73 453.413 1282.22 453.527C1279.76 453.66 1277.5 453.717 1275.41 453.717L1272.39 453.831C1264.43 453.831 1259.47 453.527 1257.52 452.995C1255.81 452.52 1254.71 451.419 1254.23 449.709C1253.98 448.817 1253.81 447.62 1253.7 446.101C1253.57 444.582 1253.51 443.271 1253.51 442.132L1253.4 440.536C1253.4 436.377 1253.7 433.32 1254.23 431.363C1254.71 429.654 1255.81 428.553 1257.52 428.078C1258.41 427.831 1260.04 427.66 1262.55 427.546C1265.02 427.413 1267.28 427.356 1269.37 427.356L1272.39 427.242C1280.34 427.242 1285.3 427.546 1287.26 428.078C1288.97 428.553 1290.07 429.654 1290.54 431.363Z" fill="black"/>
</g>
<path d="M1345 451.029H1304.23C1298.71 451.029 1294.23 455.506 1294.23 461.029V501C1294.23 506.523 1298.71 511 1304.23 511H1345C1350.53 511 1355 506.523 1355 501V461.029C1355 455.506 1350.53 451.029 1345 451.029Z" fill="#00975E" fill-opacity="0.4"/>
<path d="M1345 451.448H1304.22C1298.93 451.448 1294.64 455.738 1294.64 461.03V501.001C1294.64 506.293 1298.93 510.583 1304.22 510.583H1345C1350.29 510.583 1354.58 506.293 1354.58 501.001V461.03C1354.58 455.738 1350.29 451.448 1345 451.448Z" stroke="#28654E" stroke-opacity="0.7" stroke-width="0.836517"/>
<mask id="mask4_113_368" style="mask-type:luminance" maskUnits="userSpaceOnUse" x="1299" y="454" width="54" height="54">
<path d="M1299.92 454.836H1352.15V507.192H1299.92V454.836Z" fill="white"/>
</mask>
<g mask="url(#mask4_113_368)">
<path d="M1336.05 467.533C1334.56 465.83 1333.74 463.644 1333.74 461.381H1327.02V488.431C1326.97 489.896 1326.35 491.283 1325.3 492.3C1324.25 493.318 1322.84 493.886 1321.38 493.885C1318.29 493.885 1315.72 491.355 1315.72 488.213C1315.72 484.461 1319.34 481.647 1323.06 482.803V475.91C1315.55 474.906 1308.98 480.752 1308.98 488.213C1308.98 495.478 1314.98 500.648 1321.36 500.648C1328.19 500.648 1333.74 495.085 1333.74 488.213V474.492C1336.47 476.455 1339.74 477.508 1343.1 477.502V470.761C1343.1 470.761 1339.01 470.958 1336.05 467.533Z" fill="black"/>
</g>
<path d="M710 64.656H659C647.954 64.656 639 73.6103 639 84.656V134.656C639 145.702 647.954 154.656 659 154.656H710C721.046 154.656 730 145.702 730 134.656V84.656C730 73.6103 721.046 64.656 710 64.656Z" fill="#00975E" fill-opacity="0.4"/>
<path d="M710 65.075H659C648.185 65.075 639.418 73.842 639.418 84.6566V134.657C639.418 145.471 648.185 154.238 659 154.238H710C720.814 154.238 729.581 145.471 729.581 134.657V84.6566C729.581 73.842 720.814 65.075 710 65.075Z" stroke="#28654E" stroke-opacity="0.7" stroke-width="0.836517"/>
<mask id="mask5_113_368" style="mask-type:luminance" maskUnits="userSpaceOnUse" x="647" y="72" width="76" height="77">
<path d="M647 72.2661H723V148.266H647V72.2661Z" fill="white"/>
</mask>
<g mask="url(#mask5_113_368)">
<path d="M684.999 78.6001C672.744 78.6001 662.832 88.5111 662.832 100.766C662.832 117.391 684.999 141.933 684.999 141.933C684.999 141.933 707.165 117.391 707.165 100.766C707.165 88.5111 697.254 78.6001 684.999 78.6001ZM684.999 108.683C682.899 108.683 680.885 107.849 679.401 106.364C677.916 104.88 677.082 102.866 677.082 100.766C677.082 98.6671 677.916 96.6531 679.401 95.1681C680.885 93.6841 682.899 92.8501 684.999 92.8501C687.098 92.8501 689.112 93.6841 690.597 95.1681C692.081 96.6531 692.915 98.6671 692.915 100.766C692.915 102.866 692.081 104.88 690.597 106.364C689.112 107.849 687.098 108.683 684.999 108.683Z" fill="black"/>
</g>
<path d="M710 260.57H659C647.954 260.57 639 269.524 639 280.57V330.57C639 341.616 647.954 350.57 659 350.57H710C721.046 350.57 730 341.616 730 330.57V280.57C730 269.524 721.046 260.57 710 260.57Z" fill="#00975E" fill-opacity="0.4"/>
<path d="M710 260.989H659C648.185 260.989 639.418 269.756 639.418 280.571V330.571C639.418 341.385 648.185 350.153 659 350.153H710C720.814 350.153 729.581 341.385 729.581 330.571V280.571C729.581 269.756 720.814 260.989 710 260.989Z" stroke="#28654E" stroke-opacity="0.7" stroke-width="0.836517"/>
<mask id="mask6_113_368" style="mask-type:luminance" maskUnits="userSpaceOnUse" x="654" y="276" width="61" height="62">
<path d="M654 276.738H715V337.738H654V276.738Z" fill="white"/>
</mask>
<g mask="url(#mask6_113_368)">
<path d="M684.5 337.738C676.411 337.738 668.653 334.525 662.933 328.805C657.213 323.085 654 315.327 654 307.238C654 299.149 657.213 291.391 662.933 285.672C668.653 279.952 676.411 276.738 684.5 276.738C692.589 276.738 700.347 279.952 706.067 285.672C711.787 291.391 715 299.149 715 307.238C715 315.327 711.787 323.085 706.067 328.805C700.347 334.525 692.589 337.738 684.5 337.738ZM708.138 313.338C709.171 309.337 709.171 305.139 708.138 301.138H696.486C696.767 305.2 696.767 309.276 696.486 313.338H708.138ZM705.637 319.438H695.815C695.306 323.115 694.332 326.712 692.918 330.144C698.276 328.167 702.775 324.38 705.637 319.438ZM678.644 313.338H690.356C690.687 309.278 690.687 305.198 690.356 301.138H678.644C678.313 305.198 678.313 309.278 678.644 313.338ZM679.406 319.438C680.657 326.758 682.853 331.638 684.5 331.638C686.147 331.638 688.343 326.758 689.593 319.438H679.406ZM660.862 313.338H672.514C672.233 309.276 672.233 305.2 672.514 301.138H660.862C659.829 305.139 659.829 309.337 660.862 313.338ZM663.363 319.438C666.225 324.38 670.724 328.167 676.082 330.144C674.801 327.216 673.825 323.556 673.184 319.438H663.363ZM705.637 295.038C702.775 290.096 698.276 286.309 692.918 284.333C694.199 287.261 695.175 290.921 695.815 295.038H705.637ZM679.406 295.038H689.593C688.343 287.718 686.147 282.838 684.5 282.838C682.853 282.838 680.657 287.718 679.406 295.038ZM663.363 295.038H673.184C673.795 290.921 674.801 287.261 676.082 284.333C670.724 286.309 666.225 290.096 663.363 295.038Z" fill="black"/>
</g>
<path d="M710 475.508H659C647.954 475.508 639 484.462 639 495.508V545.508C639 556.554 647.954 565.508 659 565.508H710C721.046 565.508 730 556.554 730 545.508V495.508C730 484.462 721.046 475.508 710 475.508Z" fill="#00975E" fill-opacity="0.4"/>
<path d="M710 475.926H659C648.185 475.926 639.418 484.693 639.418 495.508V545.508C639.418 556.322 648.185 565.089 659 565.089H710C720.814 565.089 729.581 556.322 729.581 545.508V495.508C729.581 484.693 720.814 475.926 710 475.926Z" stroke="#28654E" stroke-opacity="0.7" stroke-width="0.836517"/>
<mask id="mask7_113_368" style="mask-type:luminance" maskUnits="userSpaceOnUse" x="657" y="497" width="56" height="53">
<path d="M657 497.381H713V549.381H657V497.381Z" fill="white"/>
</mask>
<g mask="url(#mask7_113_368)">
<path d="M669.22 516.568C668.156 516.568 667.294 517.432 667.294 518.497C667.294 519.562 668.156 520.43 669.22 520.43C670.285 520.43 671.147 519.566 671.147 518.497C671.147 517.428 670.285 516.568 669.22 516.568Z" fill="black"/>
<path d="M688.266 516.367C687.119 516.367 686.189 517.298 686.189 518.446C686.189 519.595 687.119 520.526 688.266 520.526C689.414 520.526 690.343 519.595 690.343 518.446C690.343 517.298 689.414 516.367 688.266 516.367Z" fill="black"/>
<path d="M705.511 497.381H664.493C660.355 497.381 657 500.739 657 504.882V529.254C657 533.397 660.355 536.755 664.493 536.755H678.979L683.908 548.379C683.908 548.379 684.248 549.385 685.067 549.385C685.89 549.385 686.226 548.379 686.226 548.379L691.155 536.755H705.511C709.649 536.755 713.004 533.397 713.004 529.254V504.882C713.004 500.739 709.649 497.381 705.511 497.381ZM674.592 518.925C674.568 523.381 669.968 523.508 669.968 523.508C668.187 523.508 667.183 522.327 667.183 522.327V523.131H663.832V509.294C663.832 509.294 663.816 509.29 663.832 509.286V509.294C664.042 509.325 667.183 509.286 667.183 509.286V514.577C667.97 513.23 670.248 513.254 670.248 513.254C675.209 513.717 674.588 518.925 674.588 518.925H674.592ZM680.494 513.682V523.155H677.215V513.777C677.215 512.502 675.632 512.145 675.632 512.145V508.838C680.87 509.052 680.494 513.682 680.494 513.682ZM688.268 523.516C685.229 523.516 682.769 521.246 682.769 518.45C682.769 515.654 685.229 513.385 688.268 513.385C691.306 513.385 693.766 515.654 693.766 518.45C693.766 521.246 691.306 523.516 688.268 523.516ZM706.235 523.516C706.235 523.516 706.283 528.327 701.397 528.327H699.91V525.211H700.808C700.808 525.211 702.861 525.401 702.837 522.232C702.837 522.232 702.438 523.516 699.558 523.516C699.558 523.516 695.475 523.222 695.475 519.234V517.721C695.475 517.721 695.57 513.587 700.052 513.258C700.052 513.258 701.821 513.068 702.908 514.533V513.519H706.235V523.519V523.516Z" fill="black"/>
<path d="M701.022 516.414C699.902 516.414 698.992 517.325 698.992 518.446C698.992 519.567 699.902 520.477 701.022 520.477C702.141 520.477 703.051 519.567 703.051 518.446C703.051 517.325 702.141 516.414 701.022 516.414Z" fill="black"/>
</g>
<path d="M1029 260.57H978C966.954 260.57 958 269.524 958 280.57V330.57C958 341.616 966.954 350.57 978 350.57H1029C1040.05 350.57 1049 341.616 1049 330.57V280.57C1049 269.524 1040.05 260.57 1029 260.57Z" fill="#00975E" fill-opacity="0.4"/>
<path d="M1029 260.989H978.002C967.187 260.989 958.42 269.756 958.42 280.571V330.571C958.42 341.385 967.187 350.153 978.002 350.153H1029C1039.82 350.153 1048.58 341.385 1048.58 330.571V280.571C1048.58 269.756 1039.82 260.989 1029 260.989Z" stroke="#28654E" stroke-opacity="0.7" stroke-width="0.836517"/>
<mask id="mask8_113_368" style="mask-type:luminance" maskUnits="userSpaceOnUse" x="972" y="292" width="62" height="29">
<path d="M972 292.906H1034V320.906H972V292.906Z" fill="white"/>
</mask>
<g mask="url(#mask8_113_368)">
<path d="M980.95 299.148C980.95 299.148 978.79 299.148 976.84 301.061V293.357H972V313.589H976.89V312.005C976.89 312.005 978.04 314.096 980.95 314.096C980.95 314.096 987.77 313.844 987.77 306.544C987.77 306.544 987.52 299.144 980.95 299.144V299.148ZM979.88 309.826C978.17 309.826 976.77 308.427 976.77 306.703C976.77 304.979 978.17 303.584 979.88 303.584C981.6 303.584 982.99 304.983 982.99 306.703C982.99 308.424 981.6 309.826 979.88 309.826Z" fill="black"/>
<path d="M989.32 292.906V297.587C989.32 297.587 991.53 297.487 991.53 301.612V313.589H996.19V300.506C996.19 300.506 996.39 292.906 989.32 292.906Z" fill="black"/>
<path d="M1007.59 299.211C1007.59 299.211 999.601 299.211 999.601 306.703C999.601 306.703 999.341 314.096 1007.59 314.096C1007.59 314.096 1015.77 314.085 1015.77 306.703C1015.77 306.703 1016.04 299.211 1007.59 299.211ZM1007.59 309.826C1005.88 309.826 1004.48 308.428 1004.48 306.703C1004.48 304.979 1005.88 303.584 1007.59 303.584C1009.31 303.584 1010.7 304.983 1010.7 306.703C1010.7 308.424 1009.31 309.826 1007.59 309.826Z" fill="black"/>
<path d="M1029.12 299.702V301.06C1029.12 301.06 1027.73 299.21 1025.06 299.21C1025.06 299.21 1018.22 298.922 1018.22 306.651C1018.22 306.651 1018.14 313.855 1024.87 313.855C1024.87 313.855 1027.62 313.966 1029.12 312.005V313.137C1029.12 313.137 1029.46 316.685 1026.04 316.685H1024.87V320.988H1026.75C1026.75 320.988 1033.82 321.066 1033.82 313.403V299.702H1029.12ZM1026.23 309.826C1024.51 309.826 1023.12 308.427 1023.12 306.703C1023.12 304.979 1024.51 303.584 1026.23 303.584C1027.95 303.584 1029.34 304.982 1029.34 306.703C1029.34 308.423 1027.94 309.826 1026.23 309.826Z" fill="black"/>
</g>
<path d="M1029 64.656H978C966.954 64.656 958 73.6103 958 84.656V134.656C958 145.702 966.954 154.656 978 154.656H1029C1040.05 154.656 1049 145.702 1049 134.656V84.656C1049 73.6103 1040.05 64.656 1029 64.656Z" fill="#00975E" fill-opacity="0.4"/>
<path d="M1029 65.075H978.002C967.187 65.075 958.42 73.842 958.42 84.6566V134.657C958.42 145.471 967.187 154.238 978.002 154.238H1029C1039.82 154.238 1048.58 145.471 1048.58 134.657V84.6566C1048.58 73.842 1039.82 65.075 1029 65.075Z" stroke="#28654E" stroke-opacity="0.7" stroke-width="0.836517"/>
<mask id="mask9_113_368" style="mask-type:luminance" maskUnits="userSpaceOnUse" x="965" y="71" width="78" height="79">
<path d="M965 71.314H1043V149.314H965V71.314Z" fill="white"/>
</mask>
<g mask="url(#mask9_113_368)">
<path d="M978 133.064V103.814C978 102.785 978.23 101.81 978.69 100.889C979.15 99.969 979.79 99.21 980.6 98.614L1000.1 83.989C1001.24 83.123 1002.54 82.689 1004 82.689C1005.46 82.689 1006.76 83.123 1007.9 83.989L1027.4 98.614C1028.21 99.21 1028.85 99.969 1029.31 100.889C1029.77 101.81 1030 102.785 1030 103.814V133.064C1030 134.852 1029.36 136.383 1028.09 137.657C1026.82 138.931 1025.29 139.567 1023.5 139.564H1013.75C1012.83 139.564 1012.06 139.252 1011.44 138.628C1010.81 138.004 1010.5 137.233 1010.5 136.314V120.064C1010.5 119.144 1010.19 118.372 1009.56 117.75C1008.94 117.129 1008.17 116.817 1007.25 116.814H1000.75C999.83 116.814 999.06 117.126 998.44 117.75C997.81 118.374 997.5 119.146 997.5 120.064V136.314C997.5 137.235 997.19 138.008 996.56 138.632C995.94 139.256 995.17 139.567 994.25 139.564H984.5C982.71 139.564 981.18 138.929 979.91 137.657C978.64 136.385 978 134.854 978 133.064Z" fill="black"/>
</g>
<path d="M993.557 468.85H957C951.477 468.85 947 473.327 947 478.85V514.506C947 520.029 951.477 524.506 957 524.506H993.557C999.079 524.506 1003.56 520.029 1003.56 514.506V478.85C1003.56 473.327 999.079 468.85 993.557 468.85Z" fill="#00975E" fill-opacity="0.4"/>
<path d="M993.555 469.271H956.998C951.708 469.271 947.42 473.559 947.42 478.849V514.505C947.42 519.795 951.708 524.083 956.998 524.083H993.555C998.845 524.083 1003.13 519.795 1003.13 514.505V478.849C1003.13 473.559 998.845 469.271 993.555 469.271Z" stroke="#28654E" stroke-opacity="0.7" stroke-width="0.843156"/>
<path d="M1050.29 496.678H1013.73C1008.21 496.678 1003.73 501.155 1003.73 506.678V542.334C1003.73 547.856 1008.21 552.334 1013.73 552.334H1050.29C1055.81 552.334 1060.29 547.856 1060.29 542.334V506.678C1060.29 501.155 1055.81 496.678 1050.29 496.678Z" fill="#00975E" fill-opacity="0.4"/>
<path d="M1050.29 497.099H1013.73C1008.44 497.099 1004.15 501.388 1004.15 506.678V542.333C1004.15 547.623 1008.44 551.911 1013.73 551.911H1050.29C1055.58 551.911 1059.86 547.623 1059.86 542.333V506.678C1059.86 501.388 1055.58 497.099 1050.29 497.099Z" stroke="#28654E" stroke-opacity="0.7" stroke-width="0.843156"/>
<path d="M1000.27 534.102H963.71C958.187 534.102 953.71 538.579 953.71 544.102V579.758C953.71 585.281 958.187 589.758 963.71 589.758H1000.27C1005.79 589.758 1010.27 585.281 1010.27 579.758V544.102C1010.27 538.579 1005.79 534.102 1000.27 534.102Z" fill="#00975E" fill-opacity="0.4"/>
<path d="M1000.27 534.523H963.708C958.418 534.523 954.13 538.811 954.13 544.101V579.757C954.13 585.047 958.418 589.335 963.708 589.335H1000.27C1005.56 589.335 1009.84 585.047 1009.84 579.757V544.101C1009.84 538.811 1005.56 534.523 1000.27 534.523Z" stroke="#28654E" stroke-opacity="0.7" stroke-width="0.843156"/>
<mask id="mask10_113_368" style="mask-type:luminance" maskUnits="userSpaceOnUse" x="949" y="471" width="52" height="52">
<path d="M990.685 471.729H959.88C954.357 471.729 949.88 476.206 949.88 481.729V512.587C949.88 518.11 954.357 522.587 959.88 522.587H990.685C996.208 522.587 1000.69 518.11 1000.69 512.587V481.729C1000.69 476.206 996.208 471.729 990.685 471.729Z" fill="white"/>
</mask>
<g mask="url(#mask10_113_368)">
<path d="M969.35 517.288H977.81V500.314H985.44L986.28 491.88H977.81V487.621C977.81 487.059 978.04 486.52 978.43 486.122C978.83 485.725 979.37 485.502 979.93 485.502H986.28V477.025H979.93C977.12 477.025 974.43 478.142 972.45 480.129C970.46 482.116 969.35 484.811 969.35 487.621V491.88H965.11L964.28 500.314H969.35V517.288Z" fill="black"/>
</g>
<mask id="mask11_113_368" style="mask-type:luminance" maskUnits="userSpaceOnUse" x="1009" y="502" width="47" height="47">
<path d="M1009.48 502.436H1055.01V548.016H1009.48V502.436Z" fill="white"/>
</mask>
<g mask="url(#mask11_113_368)">
<path d="M1024.44 506.193H1040.54C1046.68 506.193 1051.66 511.079 1051.66 517.093V532.878C1051.66 535.768 1050.49 538.541 1048.4 540.585C1046.32 542.629 1043.49 543.777 1040.54 543.777H1024.44C1018.3 543.777 1013.32 538.891 1013.32 532.878V517.093C1013.32 514.202 1014.49 511.43 1016.57 509.386C1018.66 507.342 1021.49 506.193 1024.44 506.193ZM1024.05 509.952C1022.22 509.952 1020.47 510.664 1019.17 511.933C1017.88 513.202 1017.15 514.923 1017.15 516.717V533.253C1017.15 536.993 1020.24 540.019 1024.05 540.019H1040.92C1042.75 540.019 1044.51 539.306 1045.8 538.037C1047.1 536.768 1047.83 535.048 1047.83 533.253V516.717C1047.83 512.977 1044.74 509.952 1040.92 509.952H1024.05ZM1042.55 512.77C1043.19 512.77 1043.8 513.018 1044.25 513.458C1044.7 513.899 1044.95 514.496 1044.95 515.119C1044.95 515.742 1044.7 516.34 1044.25 516.78C1043.8 517.221 1043.19 517.468 1042.55 517.468C1041.92 517.468 1041.31 517.221 1040.86 516.78C1040.41 516.34 1040.16 515.742 1040.16 515.119C1040.16 514.496 1040.41 513.899 1040.86 513.458C1041.31 513.018 1041.92 512.77 1042.55 512.77ZM1032.49 515.589C1035.03 515.589 1037.47 516.579 1039.27 518.341C1041.06 520.103 1042.07 522.493 1042.07 524.985C1042.07 527.477 1041.06 529.867 1039.27 531.629C1037.47 533.391 1035.03 534.381 1032.49 534.381C1029.95 534.381 1027.51 533.391 1025.71 531.629C1023.91 529.867 1022.9 527.477 1022.9 524.985C1022.9 522.493 1023.91 520.103 1025.71 518.341C1027.51 516.579 1029.95 515.589 1032.49 515.589ZM1032.49 519.348C1030.96 519.348 1029.5 519.942 1028.42 520.999C1027.34 522.056 1026.74 523.49 1026.74 524.985C1026.74 526.48 1027.34 527.914 1028.42 528.971C1029.5 530.029 1030.96 530.623 1032.49 530.623C1034.01 530.623 1035.48 530.029 1036.56 528.971C1037.63 527.914 1038.24 526.48 1038.24 524.985C1038.24 523.49 1037.63 522.056 1036.56 520.999C1035.48 519.942 1034.01 519.348 1032.49 519.348Z" fill="black"/>
</g>
<mask id="mask12_113_368" style="mask-type:luminance" maskUnits="userSpaceOnUse" x="957" y="536" width="51" height="51">
<path d="M957.54 536.98H1007.39V586.878H957.54V536.98Z" fill="white"/>
</mask>
<g mask="url(#mask12_113_368)">
<path fill-rule="evenodd" clip-rule="evenodd" d="M968.86 546.592C972.08 543.164 976.73 541.139 982.5 541.139C991.98 541.139 998.27 546.609 1000.26 554.189C1000.4 554.723 1000.32 555.29 1000.04 555.766C999.77 556.242 999.31 556.589 998.78 556.729C998.25 556.869 997.68 556.791 997.2 556.513C996.73 556.235 996.38 555.779 996.24 555.245C994.73 549.501 990.1 545.297 982.5 545.297C977.75 545.297 974.23 546.937 971.9 549.434C969.54 551.954 968.22 555.511 968.22 559.591V564.269C968.22 568.348 969.54 571.905 971.9 574.423C974.23 576.924 977.75 578.562 982.5 578.562C985.94 578.562 988.66 577.764 990.76 576.473C992.87 575.173 994.12 573.45 994.48 571.473C994.88 569.194 994.38 567.63 993.52 566.501C993.05 565.894 992.48 565.373 991.83 564.961C991.55 566.518 991.05 567.988 990.3 569.14C987.51 573.379 982.18 573.743 978.67 572.34C976.76 571.581 975.13 569.504 974.63 567.277C974.32 566.001 974.42 564.66 974.92 563.445C975.47 562.123 976.49 560.996 977.94 560.139C979.38 559.289 981.51 558.898 983.63 558.84C984.91 558.805 986.29 558.89 987.68 559.117C987.39 557.765 986.9 556.757 986.34 556.239C985.34 555.303 983.67 554.644 982 554.655C980.39 554.667 979.02 555.289 978.2 556.599C977.91 557.066 977.44 557.399 976.91 557.523C976.37 557.647 975.81 557.552 975.34 557.26C974.87 556.968 974.54 556.502 974.42 555.964C974.29 555.427 974.39 554.863 974.68 554.395C976.42 551.613 979.28 550.517 981.97 550.497C984.61 550.478 987.33 551.478 989.17 553.195C991.04 554.933 991.84 557.784 992.05 560.376C993.86 561.169 995.58 562.331 996.84 563.988C998.46 566.129 999.16 568.89 998.57 572.202C997.96 575.579 995.83 578.228 992.94 580.013C990.1 581.764 986.59 582.72 982.5 582.72C976.73 582.72 972.07 580.695 968.87 577.267C965.67 573.861 964.07 569.233 964.07 564.269V559.591C964.07 554.626 965.67 549.998 968.87 546.592H968.86ZM987.87 563.385C986.51 563.092 985.13 562.963 983.74 562.998C981.89 563.048 980.59 563.399 980.05 563.72C979.25 564.192 978.91 564.672 978.76 565.044C978.59 565.461 978.56 565.92 978.68 566.354C978.93 567.468 979.77 568.304 980.21 568.477C982.54 569.412 985.47 568.917 986.83 566.855C987.31 566.111 987.7 564.859 987.86 563.385H987.87Z" fill="black"/>
</g>
<path d="M457 241H381C364.431 241 351 254.431 351 271V345C351 361.569 364.431 375 381 375H457C473.569 375 487 361.569 487 345V271C487 254.431 473.569 241 457 241Z" fill="#00975E" fill-opacity="0.4"/>
<path d="M456.999 241.418H381C364.662 241.418 351.418 254.662 351.418 271V344.999C351.418 361.337 364.662 374.581 381 374.581H456.999C473.337 374.581 486.581 361.337 486.581 344.999V271C486.581 254.662 473.337 241.418 456.999 241.418Z" stroke="#28654E" stroke-opacity="0.7" stroke-width="0.836517"/>
<mask id="mask13_113_368" style="mask-type:luminance" maskUnits="userSpaceOnUse" x="378" y="267" width="82" height="82">
<path d="M378.58 267.629H459.58V348.629H378.58V267.629Z" fill="white"/>
</mask>
<g mask="url(#mask13_113_368)">
<path d="M433.502 310.981L403.475 267.629H378.581V348.629H404.656V305.28L434.687 348.629H459.581V267.629H433.502V310.981Z" fill="black"/>
</g>
<path d="M1613.12 263H1561.82C1550.77 263 1541.82 271.954 1541.82 283V333.349C1541.82 344.395 1550.77 353.349 1561.82 353.349H1613.12C1624.17 353.349 1633.12 344.395 1633.12 333.349V283C1633.12 271.954 1624.17 263 1613.12 263Z" fill="#00975E" fill-opacity="0.4"/>
<path d="M1613.12 263.418H1561.82C1551.01 263.418 1542.24 272.185 1542.24 283V333.349C1542.24 344.163 1551.01 352.93 1561.82 352.93H1613.12C1623.94 352.93 1632.7 344.163 1632.7 333.349V283C1632.7 272.185 1623.94 263.418 1613.12 263.418Z" stroke="#28654E" stroke-opacity="0.7" stroke-width="0.836517"/>
<mask id="mask14_113_368" style="mask-type:luminance" maskUnits="userSpaceOnUse" x="1543" y="266" width="84" height="85">
<path d="M1543 266.086H1627V350.086H1543V266.086Z" fill="white"/>
</mask>
<g mask="url(#mask14_113_368)">
<path fill-rule="evenodd" clip-rule="evenodd" d="M1612 286.086V324.975H1598.11V336.086L1581.17 324.975H1562V286.086H1612ZM1587.12 312.267C1586.23 312.267 1585.49 312.557 1584.91 313.137C1584.32 313.718 1584.03 314.442 1584.03 315.31C1584.03 316.222 1584.32 316.97 1584.89 317.556C1585.47 318.142 1586.21 318.435 1587.12 318.435C1588.01 318.435 1588.75 318.142 1589.33 317.556C1589.91 316.97 1590.2 316.238 1590.2 315.359C1590.2 314.469 1589.91 313.731 1589.33 313.145C1588.75 312.56 1588.01 312.267 1587.12 312.267ZM1588.33 294.558C1585.91 294.558 1583.49 295.188 1581.08 296.446L1582.53 300.06C1584.5 298.942 1586.17 298.383 1587.56 298.383C1588.41 298.383 1589.08 298.587 1589.57 298.993C1590.07 299.4 1590.31 299.951 1590.31 300.645C1590.31 301.199 1590.14 301.682 1589.78 302.094C1589.52 302.403 1589.02 302.828 1588.28 303.37L1586.53 304.62C1586.38 304.73 1586.24 304.843 1586.09 304.958L1585.79 305.211C1585.52 305.455 1585.3 305.734 1585.14 306.049C1584.85 306.592 1584.71 307.552 1584.71 308.93V310.362H1589.51V309.695C1589.51 308.708 1589.64 308.021 1589.89 307.636C1590.14 307.251 1590.81 306.695 1591.89 305.968L1592.4 305.617C1593.55 304.806 1594.37 304.046 1594.85 303.339C1595.41 302.531 1595.68 301.557 1595.68 300.418C1595.68 298.736 1595.11 297.368 1593.97 296.316C1592.68 295.144 1590.8 294.558 1588.33 294.558Z" fill="black"/>
</g>
<path d="M1613.3 468H1562C1550.95 468 1542 476.954 1542 488V538.349C1542 549.395 1550.95 558.349 1562 558.349H1613.3C1624.35 558.349 1633.3 549.395 1633.3 538.349V488C1633.3 476.954 1624.35 468 1613.3 468Z" fill="#00975E" fill-opacity="0.4"/>
<path d="M1613.3 468.418H1562C1551.19 468.418 1542.42 477.185 1542.42 488V538.349C1542.42 549.163 1551.19 557.93 1562 557.93H1613.3C1624.12 557.93 1632.88 549.163 1632.88 538.349V488C1632.88 477.185 1624.12 468.418 1613.3 468.418Z" stroke="#28654E" stroke-opacity="0.7" stroke-width="0.836517"/>
<mask id="mask15_113_368" style="mask-type:luminance" maskUnits="userSpaceOnUse" x="1549" y="476" width="75" height="76">
<path d="M1549 476.15H1624V551.15H1549V476.15Z" fill="white"/>
</mask>
<g mask="url(#mask15_113_368)">
<path d="M1558.38 492.557C1557.75 492.557 1557.16 492.804 1556.72 493.243C1556.28 493.683 1556.03 494.279 1556.03 494.9C1556.03 495.522 1556.28 496.118 1556.72 496.558C1557.16 496.997 1557.75 497.244 1558.38 497.244H1563.58L1569.73 521.854C1570.25 523.94 1572.12 525.369 1574.27 525.369H1603.49C1605.61 525.369 1607.41 523.963 1607.96 521.924L1614.04 499.588H1609.13L1603.49 520.682H1574.27L1568.12 496.072C1567.86 495.063 1567.28 494.168 1566.46 493.53C1565.63 492.893 1564.62 492.55 1563.58 492.557H1558.38ZM1600.56 525.369C1596.71 525.369 1593.53 528.545 1593.53 532.4C1593.53 536.256 1596.71 539.432 1600.56 539.432C1604.42 539.432 1607.59 536.256 1607.59 532.4C1607.59 528.545 1604.42 525.369 1600.56 525.369ZM1579.47 525.369C1575.61 525.369 1572.44 528.545 1572.44 532.4C1572.44 536.256 1575.61 539.432 1579.47 539.432C1583.32 539.432 1586.5 536.256 1586.5 532.4C1586.5 528.545 1583.32 525.369 1579.47 525.369ZM1586.5 492.557V504.275H1579.47L1588.84 513.65L1598.22 504.275H1591.19V492.557H1586.5ZM1579.47 530.057C1580.79 530.057 1581.81 531.079 1581.81 532.4C1581.81 533.722 1580.79 534.744 1579.47 534.744C1578.15 534.744 1577.12 533.722 1577.12 532.4C1577.12 531.079 1578.15 530.057 1579.47 530.057ZM1600.56 530.057C1601.88 530.057 1602.91 531.079 1602.91 532.4C1602.91 533.722 1601.88 534.744 1600.56 534.744C1599.24 534.744 1598.22 533.722 1598.22 532.4C1598.22 531.079 1599.24 530.057 1600.56 530.057Z" fill="black"/>
</g>
<path d="M1613.3 58H1562C1550.95 58 1542 66.9543 1542 78V128.349C1542 139.394 1550.95 148.349 1562 148.349H1613.3C1624.35 148.349 1633.3 139.394 1633.3 128.349V78C1633.3 66.9543 1624.35 58 1613.3 58Z" fill="#00975E" fill-opacity="0.4"/>
<path d="M1613.3 58.418H1562C1551.19 58.418 1542.42 67.185 1542.42 77.9997V128.349C1542.42 139.163 1551.19 147.93 1562 147.93H1613.3C1624.12 147.93 1632.88 139.163 1632.88 128.349V77.9997C1632.88 67.185 1624.12 58.418 1613.3 58.418Z" stroke="#28654E" stroke-opacity="0.7" stroke-width="0.836517"/>
<mask id="mask16_113_368" style="mask-type:luminance" maskUnits="userSpaceOnUse" x="1555" y="71" width="64" height="64">
<path d="M1555 71H1619V135H1555V71Z" fill="white"/>
</mask>
<g mask="url(#mask16_113_368)">
<path d="M1565.67 127.001H1568.33V92.334H1565.67C1564.25 92.334 1562.9 92.896 1561.9 93.896C1560.89 94.896 1560.33 96.253 1560.33 97.667V121.667C1560.33 123.082 1560.89 124.438 1561.9 125.439C1562.9 126.439 1564.25 127.001 1565.67 127.001ZM1608.33 92.334H1589.67L1592.66 83.353C1592.93 82.551 1593 81.698 1592.87 80.862C1592.74 80.027 1592.42 79.234 1591.92 78.549C1591.43 77.864 1590.78 77.305 1590.03 76.92C1589.28 76.535 1588.44 76.334 1587.6 76.334H1587L1573.67 90.835V127.001H1603L1613.43 104.078L1613.67 103.001V97.667C1613.67 96.253 1613.1 94.896 1612.1 93.896C1611.1 92.896 1609.75 92.334 1608.33 92.334Z" fill="black"/>
</g>
<path d="M1326 136H1275C1263.95 136 1255 144.954 1255 156V206C1255 217.046 1263.95 226 1275 226H1326C1337.05 226 1346 217.046 1346 206V156C1346 144.954 1337.05 136 1326 136Z" fill="#00975E" fill-opacity="0.4"/>
<path d="M1326 136.418H1275C1264.19 136.418 1255.42 145.185 1255.42 156V206C1255.42 216.814 1264.19 225.581 1275 225.581H1326C1336.82 225.581 1345.58 216.814 1345.58 206V156C1345.58 145.185 1336.82 136.418 1326 136.418Z" stroke="#28654E" stroke-opacity="0.7" stroke-width="0.836517"/>
<path d="M1296.46 151.828H1310.66C1310.86 151.823 1311.06 151.897 1311.2 152.045C1311.34 152.187 1311.42 152.381 1311.41 152.58C1311.21 164.456 1299.51 166.352 1299.4 166.369C1299.36 166.369 1299.32 166.381 1299.28 166.381H1284.28C1284.07 166.381 1283.87 166.29 1283.73 166.136C1283.59 165.982 1283.52 165.777 1283.54 165.567C1284.55 153.667 1296.35 151.851 1296.46 151.828ZM1322.37 189.969H1316.45C1315.3 196.283 1310.9 209.173 1293.95 209.173C1271.52 209.178 1271.06 186.564 1271.06 186.564V172.985C1271.06 172.575 1271.39 172.239 1271.81 172.239H1322.37C1327.25 172.239 1331.23 176.213 1331.23 181.104C1331.23 185.995 1327.26 189.969 1322.37 189.969ZM1322.16 176.749C1319.78 176.749 1317.85 178.673 1317.85 181.053C1317.85 183.433 1319.78 185.351 1322.16 185.351C1324.53 185.351 1326.46 183.427 1326.46 181.053C1326.46 178.679 1324.53 176.749 1322.16 176.749Z" fill="black"/>
<path d="M1685.5 99C1685.5 44.6 1641.4 0.5 1587 0.5C1532.6 0.5 1488.5 44.6 1488.5 99V559C1488.5 613.4 1532.6 657.5 1587 657.5C1641.4 657.5 1685.5 613.4 1685.5 559V99Z" stroke="#28654E"/>
<path d="M375.366 408.444V418.979C377.14 418.948 378.775 418.82 380.591 418.427L380.953 420.7C378.574 421.21 376.492 421.295 374.007 421.295H372.648V408.444H375.366ZM388.663 406.597V425.925H386.114V406.597H388.663ZM384.521 406.958V425.075H381.951V414.901H378.085V412.714H381.951V406.958H384.521ZM406.342 406.597V425.967H403.603V406.597H406.342ZM395.85 407.956C398.76 407.956 400.926 410.632 400.926 414.838C400.926 419.086 398.76 421.741 395.85 421.741C392.876 421.741 390.71 419.086 390.731 414.838C390.71 410.632 392.876 407.956 395.85 407.956ZM395.85 410.399C394.342 410.399 393.344 411.97 393.344 414.838C393.344 417.726 394.342 419.277 395.85 419.277C397.316 419.277 398.314 417.726 398.314 414.838C398.314 411.97 397.316 410.399 395.85 410.399ZM424.723 406.597V425.967H422.047V415.602H418.458V421.379H409.133V408.083H411.831V412.777H415.803V408.083H418.458V413.415H422.047V406.597H424.723ZM411.831 419.213H415.803V414.901H411.831V419.213ZM441.159 407.722C441.159 412.777 437.973 416.282 432.302 417.854L431.24 415.751C435.403 414.625 437.803 412.501 438.27 409.889H432.28V407.722H441.159ZM447.424 406.618V417.429H444.727V413.415H441.286V411.206H444.727V406.618H447.424ZM447.424 418.194V425.691H434.617V418.194H447.424ZM437.272 420.317V423.567H444.748V420.317H437.272ZM455.568 409.953C455.568 412.098 456.63 414.2 459.2 415.22L457.734 417.301C456.109 416.643 454.973 415.454 454.293 413.988C453.571 415.666 452.36 417.057 450.555 417.811L449.111 415.708C451.829 414.54 452.934 412.14 452.934 409.953V407.722H455.568V409.953ZM465.996 406.618V418.321H463.426V413.521H461.812V418.215H459.285V406.915H461.812V411.312H463.426V406.618H465.996ZM465.996 419.171V425.925H463.299V421.337H452.636V419.171H465.996Z" fill="white"/>
<path d="M1291.14 262.599C1291.12 268.567 1289.67 273.537 1282.45 277.148L1280.96 275.109C1284.19 273.505 1286.11 271.711 1287.21 269.565L1281.49 270.096L1281.15 267.781L1288.04 267.356C1288.23 266.549 1288.37 265.679 1288.44 264.765H1282.17V262.599H1291.14ZM1296.3 260.751V268.164H1299.04V270.394H1296.3V280.037H1293.58V260.751H1296.3ZM1316.21 260.751V280.079H1313.6V260.751H1316.21ZM1312.3 261.133V279.166H1309.73V270.203H1307.86V267.781H1309.73V261.133H1312.3ZM1308.31 262.939V265.126H1307.08V273.155C1307.62 273.112 1308.14 273.059 1308.63 272.985L1308.82 274.939C1305.76 275.597 1301.81 275.661 1299.39 275.661L1299.09 273.431H1300.7V265.126H1299.45V262.939H1308.31ZM1303.1 273.389L1304.61 273.325V265.126H1303.1V273.389Z" fill="white"/>
<path d="M99 0.5C153.4 0.5 197.5 44.6 197.5 99V559C197.5 613.4 153.4 657.5 99 657.5C44.6 657.5 0.5 613.4 0.5 559V99C0.5 44.6 44.6 0.5 99 0.5Z" stroke="#28654E"/>
<path d="M1266.61 547.449V549.637H1262.46V556.03H1259.7V549.637H1255.75V556.03H1252.97V549.637H1248.91V547.449H1266.61ZM1257.71 537.339C1261.85 537.339 1264.76 539.06 1264.76 541.715C1264.76 544.327 1261.85 545.963 1257.71 545.963C1253.56 545.963 1250.68 544.327 1250.7 541.715C1250.68 539.06 1253.56 537.339 1257.71 537.339ZM1257.71 539.506C1255.11 539.506 1253.46 540.292 1253.48 541.715C1253.46 543.074 1255.11 543.839 1257.71 543.839C1260.32 543.839 1261.95 543.074 1261.95 541.715C1261.95 540.292 1260.32 539.506 1257.71 539.506ZM1284.86 548.129V550.338H1280.78V556.03H1278.04V550.338H1274.01V556.03H1271.31V550.338H1267.17V548.129H1284.86ZM1282.97 544.625V546.77H1269.4V537.488H1282.76V539.612H1272.05V541.035H1282.35V543.138H1272.05V544.625H1282.97ZM1303.13 551.485V553.694H1285.44V551.485H1303.13ZM1290.03 537.934V541.141H1298.46V537.934H1301.16V548.256H1287.31V537.934H1290.03ZM1290.03 546.133H1298.46V543.244H1290.03V546.133ZM1307.77 552.504L1305.95 558.558H1303.69L1304.76 552.504H1307.77ZM1329.35 549.191V556.03H1326.63V551.357H1316.05V549.191H1329.35ZM1329.35 536.702V548.426H1326.63V536.702H1329.35ZM1323.59 537.976V540.122H1316.94V541.736H1323.02V543.817H1316.94V545.495C1320.34 545.485 1322.5 545.389 1324.95 545.007L1325.23 547.131C1322.47 547.577 1320.02 547.641 1315.88 547.641H1314.22V537.976H1323.59ZM1349.04 546.961V549.085H1331.37V546.961H1338.85V545.538H1333.58V537.127H1346.98V539.23H1336.3V540.313H1346.54V542.309H1336.3V543.478H1347.15V545.538H1341.57V546.961H1349.04ZM1346.88 550.274V556.03H1344.14V552.398H1333.37V550.274H1346.88Z" fill="white"/>
<path d="M71.1242 179.436C71.1242 182.45 72.6622 185.67 75.8002 186.982L74.3852 189.033C72.1802 188.1 70.6632 186.244 69.8322 183.968C68.9812 186.439 67.4332 188.49 65.2382 189.505L63.7412 187.434C66.8382 186.06 68.4382 182.594 68.4382 179.436V178.287H64.4802V176.154H75.0212V178.287H71.1242V179.436ZM79.5122 174.35V193.012H76.8662V174.35H79.5122ZM97.1362 174.37V187.782H94.5112V174.37H97.1362ZM97.6292 190.592V192.684H84.6272V186.429H87.2722V190.592H97.6292ZM86.9032 175.56C89.7742 175.56 92.0092 177.528 92.0092 180.256C92.0092 183.045 89.7742 184.993 86.9032 184.993C84.0322 184.993 81.7962 183.045 81.7962 180.256C81.7962 177.528 84.0322 175.56 86.9032 175.56ZM86.9032 177.836C85.4472 177.815 84.3392 178.738 84.3602 180.256C84.3392 181.814 85.4472 182.717 86.9032 182.717C88.3182 182.717 89.4252 181.814 89.4252 180.256C89.4252 178.738 88.3182 177.815 86.9032 177.836ZM120.532 188.685V190.776H103.449V188.685H110.585V184.46H113.19V188.685H120.532ZM113.272 176.749C113.272 179.415 115.671 182.225 119.937 182.881L118.829 185.055C115.548 184.46 113.108 182.707 111.877 180.379C110.647 182.696 108.227 184.47 104.966 185.055L103.859 182.881C108.083 182.225 110.462 179.395 110.483 176.749V175.416H113.272V176.749ZM137.172 174.35V193.012H134.649V183.517H132.947V192.191H130.507V174.842H132.947V181.425H134.649V174.35H137.172ZM129.194 176.646C129.174 181.855 127.615 186.121 122.365 189.177L120.847 187.372C124.652 185.137 126.282 182.399 126.651 178.738H121.791V176.646H129.194Z" fill="white"/>
<path d="M40.841 380.457C43.794 380.457 46.009 382.344 46.009 385.03C46.009 387.307 44.419 389.009 42.133 389.48V391.982C43.712 391.9 45.301 391.757 46.808 391.552L47.0141 393.438C42.8711 394.218 38.441 394.259 35.181 394.259L34.873 392.146C36.247 392.146 37.847 392.136 39.528 392.085V389.46C37.252 388.999 35.652 387.296 35.652 385.03C35.652 382.344 37.888 380.457 40.841 380.457ZM40.841 382.692C39.364 382.692 38.236 383.533 38.257 385.03C38.236 386.486 39.364 387.368 40.841 387.368C42.338 387.368 43.445 386.486 43.466 385.03C43.445 383.533 42.317 382.692 40.841 382.692ZM50.479 379.35V398.053H47.875V379.35H50.479ZM69.478 390.116V392.167H62.177V398.012H59.593V392.167H52.3951V390.116H69.478ZM56.989 380.067V382.221H64.823V380.067H67.448V388.312H54.405V380.067H56.989ZM56.989 386.22H64.823V384.271H56.989V386.22ZM84.855 380.375V381.585C84.834 382.795 84.834 384.456 84.403 386.486L81.84 386.302C82.137 384.733 82.209 383.513 82.23 382.467H75.216V380.375H84.855ZM80.179 384.538V387.758C82.045 387.696 83.9421 387.573 85.6951 387.368L85.839 389.193C81.963 389.87 77.697 389.973 74.334 389.973L74.108 387.881C75.175 387.871 76.3441 387.871 77.5741 387.84V384.538H80.179ZM89.387 379.35V383.943H91.663V386.117H89.387V390.731H86.7001V379.35H89.387ZM83.0291 390.957C87.0281 390.957 89.5101 392.29 89.5101 394.423C89.5101 396.679 87.0281 397.971 83.0291 397.971C79.0301 397.971 76.528 396.679 76.528 394.423C76.528 392.29 79.0301 390.957 83.0291 390.957ZM83.0291 392.967C80.5681 392.967 79.194 393.479 79.194 394.423C79.194 395.489 80.5681 395.94 83.0291 395.94C85.4701 395.94 86.823 395.489 86.823 394.423C86.823 393.479 85.4701 392.967 83.0291 392.967ZM107.36 380.97V382.733C107.36 385.071 107.36 387.696 106.601 391.654L103.976 391.388C104.684 387.86 104.714 385.235 104.735 383.041H93.7431V380.97H107.36ZM109 393.603V395.735H91.979V393.603H98.0701V387.184H100.674V393.603H109ZM126.686 393.787V395.94H109.603V393.787H116.802V390.978H111.572V384.702H122.134V382.651H111.552V380.56H124.718V386.753H114.197V388.845H125.148V390.978H119.406V393.787H126.686ZM147.17 379.37V392.782H144.545V379.37H147.17ZM147.662 395.592V397.684H134.66V391.429H137.305V395.592H147.662ZM136.936 380.56C139.807 380.56 142.043 382.528 142.043 385.256C142.043 388.045 139.807 389.993 136.936 389.993C134.065 389.993 131.83 388.045 131.83 385.256C131.83 382.528 134.065 380.56 136.936 380.56ZM136.936 382.836C135.48 382.815 134.373 383.738 134.393 385.256C134.373 386.814 135.48 387.717 136.936 387.717C138.351 387.717 139.459 386.814 139.459 385.256C139.459 383.738 138.351 382.815 136.936 382.836ZM156.406 384.436C156.406 387.45 157.944 390.67 161.082 391.982L159.667 394.033C157.463 393.1 155.945 391.244 155.114 388.968C154.263 391.439 152.715 393.49 150.521 394.505L149.024 392.434C152.12 391.06 153.72 387.594 153.72 384.436V383.287H149.762V381.154H160.303V383.287H156.406V384.436ZM164.794 379.35V398.012H162.149V379.35H164.794Z" fill="white"/>
<path d="M80.0248 586.277V588.39H64.7048V586.277H71.0828V584.329H73.6878V586.277H80.0248ZM80.9678 596.408V598.541H73.6878V603.032H71.0828V598.541H63.8848V596.408H80.9678ZM72.3958 589.107C76.3948 589.107 78.8148 590.235 78.8348 592.307C78.8148 594.378 76.3948 595.506 72.3958 595.506C68.3558 595.506 65.9358 594.378 65.9558 592.307C65.9358 590.235 68.3558 589.107 72.3958 589.107ZM72.3958 591.035C69.8938 591.056 68.6628 591.445 68.6628 592.307C68.6628 593.147 69.8938 593.558 72.3958 593.558C74.8568 593.558 76.1078 593.147 76.1078 592.307C76.1078 591.445 74.8568 591.056 72.3958 591.035ZM97.1978 584.35V603.012H94.5518V584.35H97.1978ZM91.5988 586.298C91.5988 591.958 89.6098 596.654 82.9448 599.812L81.5708 597.721C86.3898 595.444 88.5128 592.491 88.9328 588.349H82.5758V586.298H91.5988ZM113.128 585.437C113.128 590.317 110.052 593.701 104.577 595.219L103.551 593.188C107.571 592.102 109.888 590.051 110.339 587.528H104.556V585.437H113.128ZM119.178 584.37V594.809H116.574V590.933H113.251V588.8H116.574V584.37H119.178ZM119.178 595.547V602.786H106.812V595.547H119.178ZM109.375 597.598V600.735H116.594V597.598H109.375ZM127.041 587.59C127.041 589.661 128.066 591.691 130.548 592.676L129.133 594.686C127.564 594.05 126.467 592.901 125.81 591.486C125.113 593.106 123.944 594.45 122.201 595.178L120.806 593.147C123.431 592.02 124.498 589.702 124.498 587.59V585.437H127.041V587.59ZM137.11 584.37V595.67H134.629V591.035H133.07V595.567H130.63V584.657H133.07V588.902H134.629V584.37H137.11ZM137.11 596.49V603.012H134.506V598.582H124.211V596.49H137.11Z" fill="white"/>
<path d="M664.852 188.938V190.956H662.325V193.505H664.725V195.522H650.473V193.505H652.852V190.956H650.345V188.938H664.852ZM666.424 196.542V198.666H648.795V196.542H666.424ZM664.279 199.77V204.549H653.51V205.611H664.788V207.608H650.855V202.701H661.602V201.724H650.834V199.77H664.279ZM655.57 193.505H659.606V190.956H655.57V193.505ZM674.44 190.34V197.668H670.192V200.96C672.071 200.939 673.856 200.854 675.863 200.471L676.096 202.68C673.569 203.148 671.402 203.19 668.96 203.211H667.6V195.522H671.827V192.485H667.579V190.34H674.44ZM683.764 188.407V207.735H681.194V188.407H683.764ZM679.75 188.768V206.801H677.222V197.2H675.247V195.013H677.222V188.768H679.75ZM701.486 188.407V207.778H698.746V188.407H701.486ZM690.994 189.767C693.904 189.767 696.07 192.443 696.07 196.648C696.07 200.896 693.904 203.551 690.994 203.551C688.02 203.551 685.854 200.896 685.875 196.648C685.854 192.443 688.02 189.767 690.994 189.767ZM690.994 192.209C689.486 192.209 688.488 193.781 688.488 196.648C688.488 199.537 689.486 201.087 690.994 201.087C692.459 201.087 693.458 199.537 693.458 196.648C693.458 193.781 692.459 192.209 690.994 192.209ZM713.729 190.956C713.729 193.781 716.235 196.818 720.61 197.561L719.421 199.813C716.055 199.144 713.548 197.254 712.306 194.758C711.021 197.232 708.514 199.133 705.169 199.813L704.001 197.561C708.291 196.797 710.819 193.76 710.84 190.956V189.554H713.729V190.956ZM721.248 203.126V205.356H703.555V203.126H721.248Z" fill="white"/>
<path d="M659.818 386.105V388.272H658.098V396.704C658.884 396.64 659.648 396.566 660.392 396.47L660.54 398.424C656.59 399.125 652.151 399.189 648.837 399.21L648.54 397.001L650.749 396.98V388.272H649.028V386.105H659.818ZM664.045 384.321V391.67H666.891V393.879H664.045V403.649H661.326V384.321H664.045ZM653.361 396.938L655.485 396.853V388.272H653.361V396.938ZM683.551 384.342V403.649H680.79V399.38H676.861V397.341H680.79V384.342H683.551ZM666.963 394.134C670.574 394.134 675.395 394.113 679.558 393.561L679.707 395.536C678.008 395.844 676.256 396.035 674.546 396.152V403.076H671.806V396.279C670.202 396.332 668.684 396.343 667.303 396.343L666.963 394.134ZM673.293 385.107C676.139 385.107 678.242 386.764 678.263 389.079C678.242 391.458 676.139 393.03 673.293 393.03C670.404 393.03 668.323 391.458 668.323 389.079C668.323 386.764 670.404 385.107 673.293 385.107ZM673.293 387.167C671.848 387.167 670.871 387.911 670.871 389.079C670.871 390.29 671.848 390.969 673.293 390.969C674.695 390.969 675.672 390.29 675.693 389.079C675.672 387.911 674.695 387.167 673.293 387.167ZM701.486 384.342V396.088H698.768V384.342H701.486ZM695.263 385.468V391.33H688.976V393.072C692.205 393.051 694.477 392.945 697.09 392.541L697.429 394.707C694.456 395.196 691.865 395.281 688.02 395.281H686.321V389.313H692.566V387.656H686.3V385.468H695.263ZM694.923 396.407C699.065 396.407 701.592 397.702 701.614 400.017C701.592 402.311 699.065 403.649 694.923 403.649C690.803 403.649 688.275 402.311 688.275 400.017C688.275 397.702 690.803 396.407 694.923 396.407ZM694.923 398.509C692.332 398.509 690.973 398.998 690.973 400.017C690.973 401.037 692.332 401.547 694.923 401.547C697.514 401.547 698.874 401.037 698.895 400.017C698.874 398.998 697.514 398.509 694.923 398.509ZM719.379 386.02V388.272C719.379 391.075 719.379 393.773 718.487 397.957L715.789 397.702C716.171 396.088 716.384 394.676 716.532 393.369L705.318 393.922L704.978 391.755L716.66 391.33C716.713 390.279 716.713 389.27 716.724 388.272V388.187H705.573V386.02H719.379ZM721.184 399.125V401.334H703.555V399.125H721.184Z" fill="white"/>
<path d="M662.849 599.577V600.937H670.602V599.577H673.299V606.077H660.173V599.577H662.849ZM662.849 604.059H670.602V602.891H662.849V604.059ZM675.55 607.139V609.241H657.922V607.139H675.55ZM673.405 610.388V615.273H662.637V616.42H673.915V618.459H659.982V613.383H670.729V612.364H659.961V610.388H673.405ZM693.868 614.211V616.442H676.175V614.211H683.63V611.302H678.214V604.802H689.152V602.678H678.193V600.512H691.829V606.926H680.933V609.093H692.275V611.302H686.327V614.211H693.868ZM709.891 601.043V603.358C709.891 606.013 709.891 608.647 709.19 612.64L706.45 612.406C707.172 608.689 707.172 605.928 707.193 603.358V603.209H696.255V601.043H709.891ZM712.057 613.829V616.059H694.428V613.829H712.057Z" fill="white"/>
<path d="M983.32 201.852V207.523H969.83V201.852H983.32ZM972.51 203.87V205.505H980.67V203.87H972.51ZM984.51 189.788V191.827H968.64V189.788H975.25V188.237H977.97V189.788H984.51ZM976.61 192.315C980.79 192.337 983.11 193.25 983.11 195.076C983.11 196.691 981.29 197.615 977.97 197.795V198.751H985.42V200.875H967.79V198.751H975.25V197.795C971.94 197.615 970.09 196.691 970.11 195.076C970.09 193.25 972.45 192.337 976.61 192.315ZM976.61 194.142C974.17 194.142 973 194.397 973 195.076C973 195.735 974.17 196.011 976.61 196.011C979.07 196.011 980.2 195.735 980.2 195.076C980.2 194.397 979.07 194.142 976.61 194.142ZM1002.96 188.407V207.735H1000.34V188.407H1002.96ZM999.05 188.789V206.822H996.48V197.859H994.61V195.438H996.48V188.789H999.05ZM995.05 190.595V192.783H993.82V200.811C994.36 200.769 994.88 200.716 995.37 200.641L995.56 202.595C992.51 203.254 988.55 203.317 986.13 203.317L985.84 201.087H987.45V192.783H986.2V190.595H995.05ZM989.85 201.045L991.36 200.981V192.783H989.85V201.045ZM1020.49 188.407V207.778H1017.75V188.407H1020.49ZM1009.99 189.767C1012.9 189.767 1015.07 192.443 1015.07 196.648C1015.07 200.896 1012.9 203.551 1009.99 203.551C1007.02 203.551 1004.85 200.896 1004.88 196.648C1004.85 192.443 1007.02 189.767 1009.99 189.767ZM1009.99 192.209C1008.49 192.209 1007.49 193.781 1007.49 196.648C1007.49 199.537 1008.49 201.087 1009.99 201.087C1011.46 201.087 1012.46 199.537 1012.46 196.648C1012.46 193.781 1011.46 192.209 1009.99 192.209ZM1030.05 193.675C1030.05 196.797 1031.65 200.131 1034.9 201.491L1033.43 203.615C1031.15 202.648 1029.57 200.726 1028.71 198.369C1027.83 200.928 1026.23 203.052 1023.96 204.103L1022.41 201.958C1025.61 200.535 1027.27 196.946 1027.27 193.675V192.485H1023.17V190.276H1034.09V192.485H1030.05V193.675ZM1038.74 188.407V207.735H1036V188.407H1038.74Z" fill="white"/>
<path d="M964.5 399.104V401.313H946.811V399.104H964.5ZM951.391 385.553V388.76H959.83V385.553H962.521V395.876H948.681V385.553H951.391ZM951.391 393.752H959.83V390.863H951.391V393.752ZM981.671 384.342V398.679H979.1V392.01H977.421V398.276H974.891V384.682H977.421V389.822H979.1V384.342H981.671ZM982.161 401.143V403.31H968.561V397.32H971.281V401.143H982.161ZM973.2 385.893V391.904H968.46V393.879C970.57 393.868 972.14 393.773 973.98 393.412L974.21 395.557C971.96 395.961 970.051 396.024 967.181 396.024H965.85V389.907H970.58V388.017H965.83V385.893H973.2ZM999.07 393.263V395.43H985.401V385.935H998.921V388.123H988.07V393.263H999.07ZM1001.01 399.062V401.292H983.311V399.062H1001.01ZM1010.96 384.64V385.999H1018.72V384.64H1021.41V391.139H1008.29V384.64H1010.96ZM1010.96 389.121H1018.72V387.953H1010.96V389.121ZM1023.66 392.201V394.304H1006.04V392.201H1023.66ZM1021.52 395.451V400.336H1010.75V401.483H1022.03V403.522H1008.1V398.446H1018.84V397.426H1008.08V395.451H1021.52ZM1041.98 399.274V401.504H1024.29V399.274H1031.74V396.364H1026.33V389.865H1037.27V387.741H1026.31V385.574H1039.94V391.989H1029.05V394.155H1040.39V396.364H1034.44V399.274H1041.98ZM1058.01 386.105V388.421C1058.01 391.075 1058.01 393.709 1057.3 397.702L1054.56 397.469C1055.29 393.752 1055.29 390.991 1055.31 388.421V388.272H1044.37V386.105H1058.01ZM1060.17 398.892V401.122H1042.54V398.892H1060.17Z" fill="white"/>
<path d="M926.87 626.415V645.743H924.25V626.415H926.87ZM922.96 626.797V644.83H920.39V635.867H918.52V633.445H920.39V626.797H922.96ZM918.96 628.603V630.79H917.73V638.819C918.27 638.776 918.79 638.723 919.28 638.649L919.47 640.603C916.42 641.262 912.46 641.325 910.04 641.325L909.75 639.095H911.36V630.79H910.11V628.603H918.96ZM913.76 639.053L915.27 638.989V630.79H913.76V639.053ZM944.4 626.415V645.786H941.66V626.415H944.4ZM933.9 627.774C936.81 627.774 938.98 630.451 938.98 634.656C938.98 638.904 936.81 641.559 933.9 641.559C930.93 641.559 928.76 638.904 928.79 634.656C928.76 630.451 930.93 627.774 933.9 627.774ZM933.9 630.217C932.4 630.217 931.4 631.789 931.4 634.656C931.4 637.545 932.4 639.095 933.9 639.095C935.37 639.095 936.37 637.545 936.37 634.656C936.37 631.789 935.37 630.217 933.9 630.217ZM956.64 628.964C956.64 631.789 959.15 634.826 963.52 635.569L962.33 637.821C958.96 637.152 956.46 635.261 955.22 632.766C953.93 635.24 951.42 637.141 948.08 637.821L946.91 635.569C951.2 634.805 953.73 631.767 953.75 628.964V627.562H956.64V628.964ZM964.16 641.134V643.364H946.47V641.134H964.16ZM982.35 635.633V637.757H974.85V639.435H980.2V645.743H977.5V641.601H966.67V639.435H972.17V637.757H964.72V635.633H982.35ZM969.65 626.882V628.645H977.4V626.882H980.1V634.359H966.97V626.882H969.65ZM969.65 632.235H977.4V630.642H969.65V632.235ZM987.05 642.217L985.22 648.271H982.97L984.03 642.217H987.05ZM1013.09 626.436V640.327H1010.38V626.436H1013.09ZM1013.6 643.237V645.403H1000.14V638.925H1002.88V643.237H1013.6ZM1002.5 627.668C1005.47 627.668 1007.78 629.707 1007.78 632.532C1007.78 635.421 1005.47 637.438 1002.5 637.438C999.52 637.438 997.21 635.421 997.21 632.532C997.21 629.707 999.52 627.668 1002.5 627.668ZM1002.5 630.026C1000.99 630.005 999.84 630.96 999.86 632.532C999.84 634.146 1000.99 635.081 1002.5 635.081C1003.96 635.081 1005.11 634.146 1005.11 632.532C1005.11 630.96 1003.96 630.005 1002.5 630.026ZM1025.34 628.964C1025.34 631.789 1027.84 634.826 1032.22 635.569L1031.03 637.821C1027.66 637.152 1025.16 635.261 1023.91 632.766C1022.63 635.24 1020.12 637.141 1016.78 637.821L1015.61 635.569C1019.9 634.805 1022.43 631.767 1022.45 628.964V627.562H1025.34V628.964ZM1032.86 641.134V643.364H1015.16V641.134H1032.86ZM1043.34 628.008V630.217H1036.92V633.403H1043.06V635.527H1036.92V639.18C1039.69 639.159 1041.94 639.042 1044.52 638.628L1044.78 640.816C1041.83 641.262 1039.19 641.346 1035.82 641.346H1034.18V628.008H1043.34ZM1048.67 626.415V633.743H1051.51V636.015H1048.67V645.743H1045.95V626.415H1048.67ZM1067.13 628.199V630.514C1067.13 633.169 1067.13 635.803 1066.43 639.796L1063.69 639.562C1064.41 635.845 1064.41 633.084 1064.43 630.514V630.366H1053.5V628.199H1067.13ZM1069.3 640.985V643.216H1051.67V640.985H1069.3ZM1086.53 626.436V637.821H1083.96V633.148H1082.28V637.672H1079.76V626.776H1082.28V630.982H1083.96V626.436H1086.53ZM1086.53 638.607V645.531H1073.34V638.607H1086.53ZM1076.04 640.752V643.364H1083.86V640.752H1076.04ZM1078.06 627.562V633.318H1073.32V635.06C1075.43 635.038 1077.01 634.953 1078.84 634.614L1079.08 636.737C1076.83 637.12 1074.91 637.162 1072.05 637.162H1070.71V631.3H1075.45V629.665H1070.69V627.562H1078.06ZM1092.25 642.217L1090.43 648.271H1088.18L1089.24 642.217H1092.25ZM975.23 657.964C975.23 660.789 977.74 663.826 982.12 664.569L980.93 666.821C977.56 666.152 975.05 664.261 973.81 661.766C972.53 664.24 970.02 666.141 966.67 666.821L965.51 664.569C969.8 663.805 972.32 660.767 972.35 657.964V656.562H975.23V657.964ZM982.75 670.134V672.364H965.06V670.134H982.75ZM990.71 657.348V664.675H986.46V667.968C988.34 667.946 990.12 667.861 992.13 667.479L992.36 669.688C989.83 670.155 987.67 670.198 985.23 670.219H983.87V662.53H988.09V659.493H983.84V657.348H990.71ZM1000.03 655.415V674.743H997.46V655.415H1000.03ZM996.02 655.776V673.809H993.49V664.208H991.51V662.021H993.49V655.776H996.02ZM1017.33 664.357V666.523H1003.65V657.029H1017.18V659.217H1006.32V664.357H1017.33ZM1019.26 670.155V672.386H1001.57V670.155H1019.26ZM1041.96 664.251V666.46H1024.29V664.251H1041.96ZM1039.94 660.746V662.891H1026.43V655.925H1039.84V658.112H1029.13V660.746H1039.94ZM1033.08 667.628C1037.27 667.628 1039.79 668.902 1039.82 671.175C1039.79 673.469 1037.27 674.743 1033.08 674.743C1028.86 674.743 1026.31 673.469 1026.31 671.175C1026.31 668.902 1028.86 667.628 1033.08 667.628ZM1033.08 669.688C1030.41 669.688 1029.05 670.198 1029.07 671.175C1029.05 672.194 1030.41 672.683 1033.08 672.683C1035.7 672.683 1037.08 672.194 1037.1 671.175C1037.08 670.198 1035.7 669.688 1033.08 669.688Z" fill="white"/>
<path d="M626.509 105.033L609.358 107.455L620.031 121.097L626.509 105.033ZM443 248.607L443.924 249.789L616.801 114.533L615.876 113.352L614.952 112.171L442.076 247.426L443 248.607Z" fill="url(#paint0_linear_113_368)" fill-opacity="0.6"/>
<path d="M633.218 522.32L616.067 519.898L626.74 506.257L633.218 522.32ZM449.709 378.746L450.633 377.565L623.51 512.82L622.585 514.002L621.661 515.183L448.785 379.927L449.709 378.746Z" fill="url(#paint1_linear_113_368)" fill-opacity="0.6"/>
<path d="M639 307L624 298.34V315.66L639 307ZM489 307V308.5H625.5V307V305.5H489V307Z" fill="url(#paint2_linear_113_368)" fill-opacity="0.6"/>
<path d="M1482 348L1467 339.34V356.66L1482 348ZM1302 348V349.5H1468.5V348V346.5H1302V348Z" fill="white" fill-opacity="0.6"/>
<path d="M1004 256V206" stroke="url(#paint3_linear_113_368)" stroke-opacity="0.6" stroke-width="3" stroke-miterlimit="1.55572" stroke-linejoin="bevel"/>
<path d="M1004 462V412" stroke="url(#paint4_linear_113_368)" stroke-opacity="0.6" stroke-width="3" stroke-miterlimit="1.55572" stroke-linejoin="bevel"/>
<path d="M950 110L935 101.34V118.66L950 110ZM734 110V111.5H936.5V110V108.5H734V110Z" fill="url(#paint5_linear_113_368)" fill-opacity="0.6"/>
<path d="M950 311L935 302.34V319.66L950 311ZM868 311V312.5H936.5V311V309.5H868V311Z" fill="white" fill-opacity="0.6"/>
<path d="M950 290L935 281.34V298.66L950 290ZM840 290V291.5H936.5V290V288.5H840V290Z" fill="white" fill-opacity="0.6"/>
<path d="M946 491L931 482.34V499.66L946 491ZM868 491V492.5H932.5V491V489.5H868V491Z" fill="white" fill-opacity="0.6"/>
<path d="M351 311L336 302.34V319.66L351 311ZM337.5 311V309.5H200V311V312.5H337.5V311Z" fill="url(#paint6_linear_113_368)" fill-opacity="0.6"/>
<path d="M1557.12 183.436C1557.12 186.45 1558.66 189.67 1561.8 190.982L1560.38 193.033C1558.18 192.1 1556.66 190.244 1555.83 187.968C1554.98 190.439 1553.43 192.49 1551.24 193.505L1549.74 191.434C1552.84 190.06 1554.44 186.594 1554.44 183.436V182.287H1550.48V180.154H1561.02V182.287H1557.12V183.436ZM1565.51 178.35V197.012H1562.87V178.35H1565.51ZM1583.14 178.37V191.782H1580.51V178.37H1583.14ZM1583.63 194.592V196.684H1570.63V190.429H1573.27V194.592H1583.63ZM1572.9 179.56C1575.77 179.56 1578.01 181.528 1578.01 184.256C1578.01 187.045 1575.77 188.993 1572.9 188.993C1570.03 188.993 1567.8 187.045 1567.8 184.256C1567.8 181.528 1570.03 179.56 1572.9 179.56ZM1572.9 181.836C1571.45 181.815 1570.34 182.738 1570.36 184.256C1570.34 185.814 1571.45 186.717 1572.9 186.717C1574.32 186.717 1575.43 185.814 1575.43 184.256C1575.43 182.738 1574.32 181.815 1572.9 181.836ZM1606.47 189.526V191.659H1599.23V197.032H1596.65V191.659H1589.45V189.526H1606.47ZM1604.91 180.503V182.554H1599.31C1599.61 184.194 1601.71 186.04 1605.57 186.471L1604.62 188.521C1601.47 188.163 1599.18 186.871 1597.96 185.158C1596.75 186.891 1594.44 188.163 1591.25 188.521L1590.31 186.471C1594.17 186.04 1596.29 184.205 1596.61 182.554H1590.99V180.503H1596.65V178.37H1599.23V180.503H1604.91ZM1613.94 182.738C1613.94 184.83 1615.32 186.983 1618.35 187.906L1617.1 189.937C1615.01 189.342 1613.53 188.06 1612.69 186.43C1611.86 188.193 1610.37 189.578 1608.22 190.244L1606.95 188.193C1609.99 187.291 1611.34 185.015 1611.34 182.738V182.595H1607.59V180.544H1611.34V178.473H1613.98V180.544H1617.72V182.595H1613.94V182.738ZM1622.8 178.37V192.213H1620.2V185.917H1617.1V183.805H1620.2V178.37H1622.8ZM1623.25 194.592V196.684H1610.42V191.023H1613.04V194.592H1623.25Z" fill="white"/>
<path d="M1555.98 392.578V394.649H1548.94V397.869H1546.36V394.649H1538.89V392.578H1555.98ZM1553.78 384.17V391.04H1541.03V384.17H1553.78ZM1543.59 386.2V389.01H1551.22V386.2H1543.59ZM1554.09 399.592V401.684H1540.9V396.249H1543.51V399.592H1554.09ZM1562.59 384.601C1565.54 384.58 1567.76 386.508 1567.76 389.174C1567.76 391.86 1565.54 393.768 1562.59 393.768C1559.64 393.768 1557.4 391.86 1557.4 389.174C1557.4 386.508 1559.64 384.58 1562.59 384.601ZM1562.59 386.856C1561.11 386.856 1559.99 387.718 1560.01 389.174C1559.99 390.65 1561.11 391.491 1562.59 391.491C1564.07 391.491 1565.19 390.65 1565.21 389.174C1565.19 387.718 1564.09 386.856 1562.59 386.856ZM1572.23 383.35V402.053H1569.62V383.35H1572.23ZM1556.62 396.105C1559.94 396.126 1564.56 396.064 1568.56 395.511L1568.76 397.397C1564.62 398.197 1560.19 398.238 1556.93 398.238L1556.62 396.105ZM1588.55 384.478V392.332H1579.42V384.478H1588.55ZM1582.01 386.508V390.281H1585.94V386.508H1582.01ZM1594.09 383.35V393.932H1591.48V383.35H1594.09ZM1594.41 394.957V396.905H1589.18C1589.47 398.177 1591.44 399.643 1595.13 400.002L1594.25 401.971C1591.14 401.684 1588.94 400.556 1587.81 399.079C1586.65 400.576 1584.44 401.673 1581.31 401.971L1580.41 400.002C1584.15 399.705 1586.12 398.208 1586.4 396.905H1581.17V394.957H1586.48V393.419H1589.1V394.957H1594.41ZM1616.15 383.35V392.742H1613.54V391.307H1609.28V389.317H1613.54V387.677H1609.48C1608.32 390.486 1605.66 392.281 1601.53 393.173L1600.64 391.04C1604.92 390.189 1606.9 388.425 1607.25 386.18H1601.69V384.067H1610.14C1610.14 384.631 1610.1 385.175 1610.02 385.688H1613.54V383.35H1616.15ZM1616.15 393.419V398.525H1606.39V399.756H1616.56V401.827H1603.76V396.598H1613.52V395.47H1603.74V393.419H1616.15ZM1634.18 383.35V402.012H1631.7V383.35H1634.18ZM1630.37 383.657V401.15H1627.91V391.86H1625.45V389.748H1627.91V383.657H1630.37ZM1623.95 388.354C1623.95 391.45 1624.91 394.588 1627.64 396.146L1626.1 398.074C1624.44 397.09 1623.34 395.418 1622.72 393.419C1622.07 395.593 1620.94 397.438 1619.23 398.484L1617.65 396.557C1620.4 394.875 1621.43 391.512 1621.43 388.354V387.349H1618.37V385.257H1626.78V387.349H1623.95V388.354Z" fill="white"/>
<path d="M1536.1 588.35V607.012H1533.6V597.66H1532.02V606.15H1529.54V600.798L1528.06 602.767C1526.33 601.854 1525.21 600.306 1524.55 598.378C1523.93 600.593 1522.82 602.387 1521.04 603.443L1519.42 601.434C1522.25 599.834 1523.22 596.532 1523.22 592.964V592.369H1520.06V590.277H1528.61V592.369H1525.76V592.964C1525.76 596.214 1526.73 599.311 1529.54 600.757V588.616H1532.02V595.527H1533.6V588.35H1536.1ZM1552.47 589.437V591.118C1552.47 592.861 1552.47 594.769 1552 597.373H1554.46V599.485H1547.18V607.032H1544.55V599.485H1537.44V597.373H1549.35C1549.83 594.963 1549.87 593.138 1549.87 591.528H1539.39V589.437H1552.47ZM1571.24 588.35V607.012H1568.74V597.599H1567.06V606.15H1564.58V588.616H1567.06V595.466H1568.74V588.35H1571.24ZM1563.02 590.277V602.315H1555.6V590.277H1563.02ZM1558.04 592.349V600.265H1560.58V592.349H1558.04ZM1579.74 589.58L1574.94 607.36H1572.34L1577.12 589.58H1579.74ZM1590.56 589.601V591.692H1586.85C1586.87 593.866 1588.17 595.968 1591.15 596.84L1589.9 598.891C1587.84 598.265 1586.42 597.014 1585.6 595.404C1584.76 597.291 1583.25 598.788 1581 599.526L1579.67 597.455C1582.77 596.481 1584.16 594.061 1584.2 591.692H1580.39V589.601H1590.56ZM1594.76 588.35V592.677H1597.28V594.81H1594.76V599.424H1592.14V588.35H1594.76ZM1588.65 599.793C1592.53 599.772 1594.95 601.105 1594.95 603.382C1594.95 605.658 1592.53 607.012 1588.65 607.012C1584.69 607.012 1582.25 605.658 1582.25 603.382C1582.25 601.105 1584.69 599.772 1588.65 599.793ZM1588.65 601.823C1586.19 601.823 1584.86 602.336 1584.88 603.382C1584.86 604.448 1586.19 604.981 1588.65 604.981C1591.07 604.981 1592.36 604.448 1592.36 603.382C1592.36 602.336 1591.07 601.823 1588.65 601.823ZM1613.27 588.35V607.012H1610.62V588.35H1613.27ZM1607.67 590.298C1607.67 595.958 1605.68 600.654 1599.02 603.812L1597.64 601.721C1602.46 599.444 1604.58 596.491 1605 592.349H1598.65V590.298H1607.67ZM1634.9 589.97V591.733C1634.9 594.071 1634.9 596.696 1634.14 600.654L1631.52 600.388C1632.22 596.86 1632.25 594.235 1632.28 592.041H1621.28V589.97H1634.9ZM1636.54 602.603V604.735H1619.52V602.603H1625.61V596.184H1628.21V602.603H1636.54ZM1653.18 588.37V599.301H1650.7V594.789H1649.02V599.219H1646.56V588.698H1649.02V592.656H1650.7V588.37H1653.18ZM1653.18 600.019V607.012H1650.58V602.131H1640.16V600.019H1653.18ZM1645.29 589.642C1645.29 594.338 1643.03 597.496 1638.17 599.424L1636.94 597.476C1640.46 596.184 1642.22 594.256 1642.62 591.733H1637.84V589.642H1645.29Z" fill="white"/>
<path d="M946 525L931 516.34V533.66L946 525ZM734 525V526.5H932.5V525V523.5H734V525Z" fill="url(#paint7_linear_113_368)" fill-opacity="0.6"/>
<path d="M1071 534L1086 542.66V525.34L1071 534ZM1084.5 534V535.5H1148V534V532.5H1084.5V534Z" fill="white" fill-opacity="0.6"/>
<path d="M1225 442L1210 450.66V433.34L1225 442ZM1211.5 442V443.5H1148V442V440.5H1211.5V442Z" fill="white" fill-opacity="0.6"/>
<path d="M1061 314L1076 322.66V305.34L1061 314ZM1074.5 314V315.5H1148V314V312.5H1074.5V314Z" fill="white" fill-opacity="0.6"/>
<path d="M840 522V135" stroke="white" stroke-opacity="0.6" stroke-width="3" stroke-miterlimit="1.55572" stroke-linejoin="bevel"/>
<path d="M1148 534V314" stroke="white" stroke-opacity="0.6" stroke-width="3" stroke-miterlimit="1.55572" stroke-linejoin="bevel"/>
<path d="M1226 192L1211 200.66V183.34L1226 192ZM1212.5 192V193.5H1149V192V190.5H1212.5V192Z" fill="white" fill-opacity="0.6"/>
<path d="M1062 111L1077 119.66V102.34L1062 111ZM1075.5 111V112.5H1149V111V109.5H1075.5V111Z" fill="white" fill-opacity="0.6"/>
<path d="M1062 290L1077 298.66V281.34L1062 290ZM1075.5 290V291.5H1149V290V288.5H1075.5V290Z" fill="white" fill-opacity="0.6"/>
<path d="M1148 292L1149 111.003" stroke="white" stroke-opacity="0.6" stroke-width="3" stroke-miterlimit="1.55572" stroke-linejoin="bevel"/>
<path d="M868 493V111" stroke="white" stroke-opacity="0.6" stroke-width="3" stroke-miterlimit="1.55572" stroke-linejoin="bevel"/>
<path d="M950 135L935 126.34V143.66L950 135ZM840 135V136.5H936.5V135V133.5H840V135Z" fill="white" fill-opacity="0.6"/>
<path d="M1299 397V292" stroke="url(#paint8_linear_113_368)" stroke-opacity="0.6" stroke-width="3" stroke-miterlimit="1.55572" stroke-linejoin="bevel"/>
<path d="M1587 455V405" stroke="url(#paint9_linear_113_368)" stroke-opacity="0.6" stroke-width="3" stroke-miterlimit="1.55572" stroke-linejoin="bevel"/>
<path d="M1587 254V204" stroke="url(#paint10_linear_113_368)" stroke-opacity="0.6" stroke-width="3" stroke-miterlimit="1.55572" stroke-linejoin="bevel"/>
<defs>
<linearGradient id="paint0_linear_113_368" x1="443.308" y1="249.001" x2="626.817" y2="105.427" gradientUnits="userSpaceOnUse">
<stop stop-color="white" stop-opacity="0"/>
<stop offset="1" stop-color="white"/>
</linearGradient>
<linearGradient id="paint1_linear_113_368" x1="450.017" y1="378.352" x2="633.526" y2="521.926" gradientUnits="userSpaceOnUse">
<stop stop-color="white" stop-opacity="0"/>
<stop offset="1" stop-color="white"/>
</linearGradient>
<linearGradient id="paint2_linear_113_368" x1="489" y1="307.5" x2="639" y2="307.5" gradientUnits="userSpaceOnUse">
<stop stop-color="white" stop-opacity="0"/>
<stop offset="1" stop-color="white"/>
</linearGradient>
<linearGradient id="paint3_linear_113_368" x1="nan" y1="nan" x2="nan" y2="nan" gradientUnits="userSpaceOnUse">
<stop stop-color="white" stop-opacity="0"/>
<stop offset="0.5" stop-color="white"/>
<stop offset="1" stop-color="white" stop-opacity="0"/>
</linearGradient>
<linearGradient id="paint4_linear_113_368" x1="nan" y1="nan" x2="nan" y2="nan" gradientUnits="userSpaceOnUse">
<stop stop-color="white" stop-opacity="0"/>
<stop offset="0.5" stop-color="white"/>
<stop offset="1" stop-color="white" stop-opacity="0"/>
</linearGradient>
<linearGradient id="paint5_linear_113_368" x1="734" y1="110.5" x2="950" y2="110.5" gradientUnits="userSpaceOnUse">
<stop stop-color="white" stop-opacity="0"/>
<stop offset="1" stop-color="white"/>
</linearGradient>
<linearGradient id="paint6_linear_113_368" x1="351" y1="310.5" x2="200" y2="310.5" gradientUnits="userSpaceOnUse">
<stop stop-color="white"/>
<stop offset="1" stop-color="white" stop-opacity="0"/>
</linearGradient>
<linearGradient id="paint7_linear_113_368" x1="734" y1="525.5" x2="946" y2="525.5" gradientUnits="userSpaceOnUse">
<stop stop-color="white" stop-opacity="0"/>
<stop offset="1" stop-color="white"/>
</linearGradient>
<linearGradient id="paint8_linear_113_368" x1="nan" y1="nan" x2="nan" y2="nan" gradientUnits="userSpaceOnUse">
<stop stop-color="white" stop-opacity="0"/>
<stop offset="0.5" stop-color="white"/>
<stop offset="1" stop-color="white" stop-opacity="0"/>
</linearGradient>
<linearGradient id="paint9_linear_113_368" x1="nan" y1="nan" x2="nan" y2="nan" gradientUnits="userSpaceOnUse">
<stop stop-color="white" stop-opacity="0"/>
<stop offset="0.5" stop-color="white"/>
<stop offset="1" stop-color="white" stop-opacity="0"/>
</linearGradient>
<linearGradient id="paint10_linear_113_368" x1="nan" y1="nan" x2="nan" y2="nan" gradientUnits="userSpaceOnUse">
<stop stop-color="white" stop-opacity="0"/>
<stop offset="0.5" stop-color="white"/>
<stop offset="1" stop-color="white" stop-opacity="0"/>
</linearGradient>
</defs>
</svg>
